<svg xmlns="http://www.w3.org/2000/svg" width="320" height="320"><defs><clipPath id="a"><path transform="translate(997 1435)" stroke="#707070" d="M0 0h320v320H0z"/></clipPath></defs><g transform="translate(-997 -1435)" clip-path="url(#a)"><g fill="#a2d5d4"><path d="M1577.444 1552.535l2.829 2.828-480.908 480.909-2.829-2.829zM1568.96 1544.05l2.827 2.828-480.908 480.908-2.828-2.828zM1560.474 1535.564l2.828 2.829-480.908 480.908-2.828-2.828zM1551.989 1527.08l2.828 2.828-480.908 480.908-2.829-2.829zM1543.503 1518.594l2.829 2.828-480.909 480.909-2.828-2.829zM1535.018 1510.109l2.828 2.828-480.908 480.908-2.828-2.828zM1526.533 1501.623l2.828 2.829-480.908 480.908-2.829-2.828zM1518.047 1493.138l2.829 2.828-480.908 480.909-2.829-2.829zM1509.562 1484.653l2.829 2.828-480.909 480.908-2.828-2.828zM1501.077 1476.167l2.828 2.829-480.908 480.908-2.828-2.828zM1492.592 1467.682l2.828 2.829-480.908 480.908-2.829-2.829zM1484.106 1459.197l2.829 2.828-480.909 480.909-2.828-2.829zM1475.621 1450.712l2.828 2.828-480.908 480.908-2.828-2.828zM1467.136 1442.226l2.828 2.829-480.908 480.908-2.829-2.828zM1458.65 1433.741l2.829 2.828-480.908 480.909-2.829-2.829zM1450.165 1425.256l2.829 2.828-480.909 480.908-2.828-2.828zM1441.68 1416.77l2.828 2.829L963.6 1900.507l-2.828-2.828zM1433.195 1408.285l2.828 2.829-480.908 480.908-2.829-2.829zM1424.71 1399.8l2.828 2.828-480.909 480.909-2.828-2.829zM1416.224 1391.315l2.828 2.828-480.908 480.908-2.828-2.828zM1407.739 1382.83l2.828 2.828-480.908 480.908-2.829-2.828zM1399.253 1374.344l2.829 2.829-480.908 480.908-2.829-2.829zM1390.768 1365.859l2.829 2.828-480.909 480.909-2.828-2.829zM1382.283 1357.374l2.828 2.828-480.908 480.908-2.828-2.828zM1373.798 1348.888l2.828 2.829-480.908 480.908-2.829-2.828zM1365.312 1340.403l2.829 2.828-480.909 480.909-2.828-2.829zM1356.827 1331.918l2.828 2.828-480.908 480.908-2.828-2.828zM1348.342 1323.432l2.828 2.829-480.908 480.908-2.829-2.828zM1339.856 1314.947l2.829 2.829-480.908 480.908-2.829-2.829zM1331.371 1306.462l2.829 2.828L853.29 1790.2l-2.828-2.829zM1322.886 1297.977l2.828 2.828-480.908 480.908-2.828-2.828zM1314.4 1289.491l2.83 2.829-480.91 480.908-2.828-2.828zM1305.915 1281.006l2.829 2.828-480.909 480.909-2.828-2.829zM1297.43 1272.52l2.828 2.83-480.908 480.907-2.828-2.828zM1288.945 1264.035l2.828 2.829-480.908 480.908-2.828-2.828zM1280.46 1255.55l2.828 2.829-480.908 480.908-2.829-2.829zM1271.974 1247.065l2.829 2.828-480.909 480.909-2.828-2.829zM1263.489 1238.58l2.828 2.828-480.908 480.908-2.828-2.828zM1255.004 1230.094l2.828 2.829-480.908 480.908-2.829-2.828zM1246.518 1221.609l2.829 2.828-480.908 480.909-2.829-2.829zM1238.033 1213.124l2.829 2.828-480.909 480.908-2.828-2.828zM1229.548 1204.638l2.828 2.829-480.908 480.908-2.828-2.828zM1221.063 1196.153l2.828 2.829-480.908 480.908-2.829-2.829zM1212.577 1187.668l2.829 2.828-480.909 480.909-2.828-2.829zM1204.092 1179.183l2.828 2.828-480.908 480.908-2.828-2.828zM1195.607 1170.697l2.828 2.829-480.908 480.908-2.829-2.828zM1187.121 1162.212l2.829 2.828-480.908 480.909-2.829-2.829zM1178.636 1153.727l2.829 2.828-480.909 480.908-2.828-2.828z"/></g></g></svg>