<svg xmlns="http://www.w3.org/2000/svg" width="1440" height="120"><path d="M0 120V0h406.873c-13.593 0-27.509.455-41.362 1.348a687.784 687.784 0 00-40.319 3.809A750.517 750.517 0 00248.9 18.75 857.365 857.365 0 00119.491 60a898.643 898.643 0 00-49.782 22.031C56.738 88.252 44.082 94.718 32.09 101.25 11.9 112.246.478 119.687 0 120zm1006-60c-129.17 0-224.867-15.9-317.414-31.286h-.011C643.84 21.278 601.586 14.256 555.745 8.9c-24.645-2.883-47.918-5-71.162-6.461A1223.031 1223.031 0 00407 0h1033a.314.314 0 01-.054.02c-2.062.667-13.318 4.25-32.439 9.355-12.231 3.266-25.22 6.5-38.6 9.609A1469.319 1469.319 0 011317.189 30c-44.768 8.709-91 15.649-137.414 20.625a1663.9 1663.9 0 01-83.012 6.8A1618.856 1618.856 0 011006 60z" fill="#fff"/></svg>