<svg xmlns="http://www.w3.org/2000/svg" width="60" height="60"><g data-name="グループ 7"><path data-name="パス 54" d="M0 0v60h60V0zm57.36 57.36H2.64V2.64h54.72v54.72z"/><g data-name="グループ 6"><path d="M20.732 34.161l-2.167 7.185c-.036.248-.142.331-.355.331h-3.623c-.249 0-.319-.124-.249-.413 1.918-6.319 5.15-16.849 7.423-23.993A9.494 9.494 0 0022.045 15a.222.222 0 01.213-.248h4.9c.177 0 .213.041.284.206 2.628 8.466 5.505 17.8 8.2 26.347q.107.371-.213.372H31.45c-.177 0-.248-.083-.319-.248l-2.274-7.268h-8.133zm7.174-4.047c-.71-2.767-2.451-8.342-3.161-11.232h-.036c-.533 2.725-1.989 7.392-3.055 11.232z" data-name="グループ 4"/><path d="M39.25 16.31a2.374 2.374 0 012.373-2.56 2.569 2.569 0 11-2.373 2.56zm.244 5.616c0-.248.07-.33.244-.33h3.7c.209 0 .28.041.28.33v19.409c0 .207-.07.33-.28.33h-3.629c-.21 0-.314-.082-.314-.371V21.926z" data-name="グループ 5"/></g></g></svg>