<svg xmlns="http://www.w3.org/2000/svg" width="60" height="60"><path data-name="中マド 1" d="M30 60a30.221 30.221 0 01-6.046-.61 29.836 29.836 0 01-10.727-4.514 30.087 30.087 0 01-10.869-13.2 29.853 29.853 0 01-1.748-5.63 30.292 30.292 0 010-12.092 29.838 29.838 0 014.514-10.727 30.089 30.089 0 0113.2-10.869A29.852 29.852 0 0123.954.61a30.291 30.291 0 0112.092 0 29.833 29.833 0 0110.727 4.514 30.087 30.087 0 0110.869 13.2 29.845 29.845 0 011.748 5.631 30.292 30.292 0 010 12.092 29.837 29.837 0 01-4.514 10.727 30.087 30.087 0 01-13.2 10.869 29.845 29.845 0 01-5.631 1.748A30.221 30.221 0 0130 60zm.48-23.76l-1.08 4.32a11.7 11.7 0 002.8.99A16.949 16.949 0 0036 42a13.966 13.966 0 004.171-.577 8.267 8.267 0 002.917-1.561A6.348 6.348 0 0044.8 37.57a6.858 6.858 0 00.56-2.77 6.062 6.062 0 00-1.47-4.155 10.741 10.741 0 00-4.53-2.8 15.5 15.5 0 01-3.308-1.515 2.551 2.551 0 01-.768-.8 1.94 1.94 0 01-.245-.988A1.9 1.9 0 0135.865 23a4.246 4.246 0 012.535-.68 11.275 11.275 0 014.8 1.08l1.2-4.2a13.709 13.709 0 00-5.94-1.2 12.225 12.225 0 00-3.682.53A8.366 8.366 0 0032 19.987a6.4 6.4 0 00-1.752 2.189 6.213 6.213 0 00-.61 2.723 5.9 5.9 0 00.463 2.336 6.2 6.2 0 001.307 1.909 9.488 9.488 0 002.027 1.526 16.419 16.419 0 002.625 1.19 17.071 17.071 0 011.8.709 5.866 5.866 0 011.208.731 2.474 2.474 0 01.68.821 2.174 2.174 0 01.213.979 2.374 2.374 0 01-.234 1.061 2.23 2.23 0 01-.7.814 3.392 3.392 0 01-1.146.521 6.267 6.267 0 01-1.584.184 12.478 12.478 0 01-3.225-.45 13.172 13.172 0 01-2.595-.99zm-16.08.96l-.6 4.26a12.816 12.816 0 003.84.54 13.544 13.544 0 001.8-.113 9.446 9.446 0 001.61-.355 7.025 7.025 0 001.405-.62A5.976 5.976 0 0023.64 40a6.153 6.153 0 00.948-1.216 7.69 7.69 0 00.7-1.548 10.97 10.97 0 00.429-1.9 16.645 16.645 0 00.146-2.279V18.36H20.64l.06 14.7a5.334 5.334 0 01-.968 3.608 2.6 2.6 0 01-1.133.738 4.609 4.609 0 01-1.5.215 8.768 8.768 0 01-2.7-.42z"/></svg>