<svg xmlns="http://www.w3.org/2000/svg" width="62.557" height="60"><path data-name="パス 137" d="M61.058 43.389l-.2.47a26.57 26.57 0 01-2.773 4.63 27.443 27.443 0 01-15.657 10.556 29.232 29.232 0 01-4.182.738 38.29 38.29 0 01-5.77.179 39.5 39.5 0 01-5.882-.716 14.831 14.831 0 01-2.237-.649A36.21 36.21 0 015.703 44.552a32.139 32.139 0 01-4.9-10.982 27.979 27.979 0 01-.805-6.71 23.26 23.26 0 012.1-9.751 22.7 22.7 0 011.543-2.8l.6-.828L7.67 9.148l.38-.47a.582.582 0 010 .4 23.618 23.618 0 00-1.566 4.361 26.57 26.57 0 00-.626 8.946 30.462 30.462 0 002.617 9.572 34.264 34.264 0 006.71 9.774 37.731 37.731 0 007.358 5.837 36.925 36.925 0 009.17 3.914c1.029.268 2.1.447 3.176.626a30.376 30.376 0 003.2.335h3a30.081 30.081 0 007.85-1.1 24.222 24.222 0 008.79-4.473 21.65 21.65 0 003.131-3.109l.134-.38z"/><path data-name="パス 138" d="M61.259 30.462a18.183 18.183 0 01-12.122 9.129 23.082 23.082 0 01-4.473.716 27.442 27.442 0 01-4.473 0 23.4 23.4 0 01-3.064-.38l-.425-.112a26.414 26.414 0 01-12.167-7.4 25.43 25.43 0 01-5.368-8.745 21.851 21.851 0 01-1.006-7.112 17.289 17.289 0 013.243-9.93c.738-1.029 1.476-2.08 2.237-3.131.112-.134.2-.268.313-.38s.112 0 .157 0l-.246.358a17.579 17.579 0 00-1.458 4.464 19.011 19.011 0 00-.291 4.473 21 21 0 001.879 7.56 25.117 25.117 0 006.355 8.519 26.19 26.19 0 0010.914 5.8 22.835 22.835 0 006.956.738 19.771 19.771 0 009.394-2.818 16.618 16.618 0 004.607-4.138l.335-.4s-.939 2.095-1.297 2.789z"/><path data-name="パス 139" d="M37.149.045l-.2.492a11.026 11.026 0 00-.805 5.1 14.6 14.6 0 002.908 7.47 16.014 16.014 0 008.946 6.128 17.378 17.378 0 004.786.626 10.937 10.937 0 003.288-.47 8.946 8.946 0 004.093-2.5l.38-.38v.224a12.189 12.189 0 01-6.128 5.614 13.084 13.084 0 01-4.249.872 18.072 18.072 0 01-4.249-.313 13.42 13.42 0 01-2.773-.939 16.461 16.461 0 01-7.694-7 13.419 13.419 0 01-1.633-4.853A11.608 11.608 0 0135.874 1.7L36.925.269l.2-.268z"/></svg>