<svg xmlns="http://www.w3.org/2000/svg" viewBox="0 0 722.64 106.67"><defs><style>.cls-1{fill:#fff;}.cls-2{fill:#6caca9;}.cls-3{fill:#9ecfce;}</style></defs><g id="レイヤー_2" data-name="レイヤー 2"><g id="レイヤー_2-2" data-name="レイヤー 2"><rect class="cls-1" x="146.54" y="39.67" width="11.72" height="50.25"/><polygon class="cls-1" points="164.62 54.74 176.65 54.74 184.59 78.44 192.6 56.41 199.99 56.41 207.61 78.37 215.86 54.74 226.74 54.74 212.94 89.92 202.78 89.92 195.68 69.83 188.5 89.92 178.41 89.92 164.62 54.74"/><path class="cls-1" d="M229.23,81.37c0-7.86,8.07-9.32,14.77-10.17,4.19-.54,6.09-.85,6.09-3.77,0-2.62-1.6-4-5.1-4s-6.17,1.39-7.31,3.93l-6.85-4.08c2.59-5.16,8.53-7.7,15.46-7.7,8.6,0,14.16,4.08,14.16,13.17V89.92h-10v-4.7c-1.91,3.62-5.33,5.47-10.2,5.47-6.78,0-11-3.55-11-9.32m21.17-4V73.67c-.92,1.61-2.39,2.08-5.08,2.46s-6.17.85-6.17,4.24c0,2.31,1.47,3.77,4.63,3.77,3.85,0,6.62-2.08,6.62-6.78"/><path class="cls-1" d="M272.18,56.42h3c3.83,0,5.32-.08,7-.62V62c2.18-3.92,6.48-6.3,12-6.3,5.16,0,9,2.3,10.63,6.83,2.26-4.3,6.72-6.83,12.66-6.83,7.12,0,11.65,4.14,11.65,12.21V89.92H319.08V70.13c0-4.17-1.51-5.63-4.39-5.63-4.46,0-7.34,3.39-7.34,9.24V89.92H295.63V70.13c0-4.17-1.73-5.63-5-5.63-5.1,0-8.38,3.39-8.38,9.24V89.92H272.18Z"/><path class="cls-1" d="M338.18,73c0-9.39,8.62-17.56,18.63-17.56S375.53,63.58,375.53,73s-8.63,17.56-18.72,17.56S338.18,82.37,338.18,73m26.57,0c0-5.16-3.47-8.85-7.94-8.85S349,67.81,349,73s3.47,8.86,7.85,8.86,7.94-3.62,7.94-8.86"/><path class="cls-1" d="M387.76,77.34V64.79h-6.7V57.86l.51-.08c5.09-.77,7.86-4.08,7.86-9.55V46.36h1.35c3.16-.65,7-1.26,7-1.26V56.41h11.72v8.38H397.81V79c0,2.85,1.24,4.31,3.08,4.31s3.52-1.77,4.55-4.16l6.82,4.47c-1.91,4.78-6.39,7.47-11.67,7.47-7.7,0-12.83-5.39-12.83-13.71"/><path class="cls-1" d="M417.59,73c0-9.39,8.62-17.56,18.64-17.56S454.94,63.58,454.94,73s-8.62,17.56-18.71,17.56S417.59,82.37,417.59,73m26.57,0c0-5.16-3.47-8.85-7.93-8.85s-7.86,3.69-7.86,8.85,3.47,8.86,7.86,8.86,7.93-3.62,7.93-8.86"/><polygon class="cls-1" points="511.5 68.14 493.07 68.14 493.07 89.92 481.35 89.92 481.35 39.66 493.07 39.66 493.07 59.77 511.5 59.77 511.5 39.66 523.23 39.66 523.23 89.92 511.5 89.92 511.5 68.14"/><path class="cls-1" d="M532.21,81.37c0-7.86,8.07-9.32,14.77-10.17,4.19-.54,6.09-.85,6.09-3.77,0-2.62-1.6-4-5.1-4s-6.17,1.39-7.31,3.93l-6.85-4.08c2.59-5.16,8.52-7.7,15.45-7.7,8.61,0,14.17,4.08,14.17,13.17V89.92h-10v-4.7c-1.91,3.62-5.33,5.47-10.2,5.47-6.78,0-11-3.55-11-9.32m21.17-4V73.67c-.93,1.61-2.39,2.08-5.09,2.46s-6.16.85-6.16,4.24c0,2.31,1.47,3.77,4.62,3.77,3.85,0,6.63-2.08,6.63-6.78"/><polygon class="cls-1" points="583.79 89.55 570.1 56.41 580.83 56.41 589.39 78.66 598.26 56.41 607.9 56.41 587.14 106.67 576.56 106.67 583.79 89.55"/><path class="cls-1" d="M612.61,81.37c0-7.86,8.07-9.32,14.77-10.17,4.19-.54,6.1-.85,6.1-3.77,0-2.62-1.6-4-5.1-4s-6.17,1.39-7.31,3.93l-6.86-4.08c2.59-5.16,8.53-7.7,15.46-7.7,8.6,0,14.16,4.08,14.16,13.17V89.92H633.78v-4.7c-1.9,3.62-5.33,5.47-10.2,5.47-6.78,0-11-3.55-11-9.32m21.17-4V73.67c-.92,1.61-2.39,2.08-5.08,2.46s-6.16.85-6.16,4.24c0,2.31,1.46,3.77,4.62,3.77,3.85,0,6.62-2.08,6.62-6.78"/><path class="cls-1" d="M657.23,77.34V64.79h-5V57.86l.51-.08c5.1-.77,7.86-4.08,7.86-9.55V46.36H661a20.35,20.35,0,0,0,6.28-.61V56.41h13.4v8.38h-13.4V79c0,2.85,1.25,4.31,3.08,4.31s3.53-1.77,4.55-4.16l6.83,4.47c-1.91,4.78-6.39,7.47-11.67,7.47-7.7,0-12.84-5.39-12.84-13.71"/><path class="cls-1" d="M688.06,73.22c0-9.47,8.32-17.63,17.71-17.63s16.87,7.7,16.87,19.25H698.69c.38,4.47,3.46,8,8.93,8,4,0,6.39-1.69,7.63-4.47l7.24,4c-2.55,5-7.63,8.32-15.41,8.32-10.93,0-19-7.78-19-17.49m10.63-3.41h13.4C711.86,66,709.47,63,705.62,63c-4.08,0-6.39,3.08-6.93,6.85"/><path class="cls-2" d="M91.7,96.23H69.24A9.8,9.8,0,0,1,60,89.67L38.77,18.25H58.39L78.21,84s1.09,3.86,1.54,5.11c1.1,3.06,3,3.52,4.94,4.31l7,2.83"/><path class="cls-3" d="M117.68,0a9.69,9.69,0,0,0-9.29,6.91L96,48.12h0L85.89,82.21c-1.38,4.24-2.78,7-5.9,9.46a24.15,24.15,0,0,1-10.64,4.56H93.82A9.61,9.61,0,0,0,103,89.38l12.4-41.26h0L126.15,12s1.37-4.5,1.78-6a7.27,7.27,0,0,1,3.64-4.63c1.82-1,7.9-1.38,7.9-1.38Z"/><path class="cls-2" d="M52.93,96.23H30.47a9.81,9.81,0,0,1-9.26-6.56L0,18.25H19.61L39.44,84s1.09,3.86,1.54,5.11c1.1,3.06,3,3.52,4.94,4.31l7,2.83"/><path class="cls-3" d="M78.9,0a9.68,9.68,0,0,0-9.28,6.91L57.23,48.12h0L47.12,82.21c-1.38,4.24-2.79,7-5.9,9.46a24.17,24.17,0,0,1-10.65,4.56H55.05a9.62,9.62,0,0,0,9.22-6.85l12.4-41.26h0L87.37,12s1.38-4.5,1.79-6a7.21,7.21,0,0,1,3.63-4.63C94.62.4,100.7,0,100.7,0Z"/></g></g></svg>