<svg xmlns="http://www.w3.org/2000/svg" width="59.805" height="60"><path data-name="パス 118" d="M59.808 0v60H0V0h59.808m-2.42 2.417H2.417v55.166h54.971z"/><g data-name="グループ 24"><path data-name="パス 119" d="M9.105 12.635a51.62 51.62 0 019.161-.7c4.385 0 7.553.947 9.648 2.743a9.59 9.59 0 013.216 7.43 10.364 10.364 0 01-2.777 7.579c-2.436 2.443-6.14 3.64-10.379 3.64a12.813 12.813 0 01-2.924-.25v12.591H9.105zm5.945 15.608a9.781 9.781 0 002.924.3c4.483 0 7.212-2.294 7.212-6.183 0-3.74-2.534-5.685-6.676-5.685a16.2 16.2 0 00-3.46.3v11.269z"/><path data-name="パス 120" d="M34.22 39.489a12.777 12.777 0 006.042 1.8c2.631 0 3.8-.9 3.8-2.493 0-1.646-.975-2.443-3.9-3.54-4.629-1.6-6.529-4.189-6.529-7.081 0-4.289 3.46-7.58 8.966-7.58a13.435 13.435 0 016.334 1.446l-1.218 4.288a10.307 10.307 0 00-5.019-1.4c-2.144 0-3.313 1.1-3.313 2.593 0 1.546 1.121 2.244 4.142 3.391 4.337 1.546 6.286 3.79 6.335 7.38 0 4.438-3.362 7.379-9.648 7.379a15.024 15.024 0 01-7.212-1.7z"/></g></svg>