<svg xmlns="http://www.w3.org/2000/svg" width="80.015" height="60"><g data-name="グループ 17"><path data-name="パス 57" d="M68.885 34.487a16.4 16.4 0 00-7.249 1.687 15.406 15.406 0 01-1.625-3.762 10.05 10.05 0 01-.137-3.162 26.61 26.61 0 01.95-3.4c-.012-.137-.175-.825-1.787-.838s-3 .312-3.162.737a15.325 15.325 0 00-.662 2.387c-.288 1.462-3.225 6.687-4.887 9.412a9.711 9.711 0 01-1.112-2.75 10.044 10.044 0 01-.137-3.162 26.62 26.62 0 01.95-3.4c-.013-.137-.175-.825-1.787-.838s-3 .312-3.162.738-.337 1.425-.662 2.388-4.237 9.661-5.262 11.924a61.721 61.721 0 01-1.3 2.7c-.05.1-.087.162-.112.213.037-.062.063-.125.063-.1-.275.537-.438.837-.438.837v.012c-.213.4-.45.762-.562.762a5.182 5.182 0 01.038-2.487c.587-3.025 1.975-7.724 1.962-7.887-.013-.087.262-.9-.913-1.337a1.471 1.471 0 00-1.65.275c-.1 0-.175.25-.175.25s1.263-5.3-2.425-5.3c-2.3 0-5.5 2.525-7.074 4.812-.988.537-3.125 1.7-5.375 2.937-.862.475-1.75.962-2.587 1.425-.062-.063-.113-.125-.175-.188-4.475-4.774-12.736-8.149-12.386-14.561.125-2.337.937-8.474 15.886-15.924 12.249-6.1 22.048-4.425 23.736-.7 2.424 5.312-5.237 15.2-17.961 16.624-4.85.537-7.4-1.337-8.037-2.037-.663-.737-.763-.775-1.013-.638-.413.225-.15.875 0 1.262a7.531 7.531 0 004.6 3.612c2.337.762 8.024 1.188 14.9-1.475 7.724-2.975 13.737-11.262 11.974-18.2-1.8-7.049-13.486-9.362-24.548-5.437-6.587 2.337-13.711 6.012-18.836 10.8C.659 18.398-.316 23.36.084 25.435c1.425 7.362 11.574 12.161 15.636 15.711-.2.113-.388.213-.562.313-2.037 1.012-9.774 5.062-11.712 9.337-2.187 4.85.362 8.324 2.037 8.8 5.225 1.45 10.574-1.163 13.449-5.45s2.525-9.887 1.2-12.436c-.013-.037-.038-.062-.05-.1.525-.312 1.062-.625 1.6-.937 1.037-.612 2.05-1.175 2.937-1.662a19.406 19.406 0 00-1.05 5.324c-.225 2.75.913 6.312 2.387 7.712a2.625 2.625 0 001.925.625c1.725 0 2.5-1.425 3.362-3.125 1.062-2.075 2-4.488 2-4.488s-1.175 6.525 2.037 6.525c1.175 0 2.35-1.512 2.875-2.287v.012s.025-.05.088-.15c.125-.188.187-.3.187-.3v-.038c.475-.812 1.512-2.675 3.075-5.749 2.025-3.975 3.962-8.937 3.962-8.937a25.119 25.119 0 00.775 3.225 30.178 30.178 0 001.675 3.75c-.475.65-.762 1.025-.762 1.025a.039.039 0 00.012.025c-.375.5-.8 1.038-1.237 1.563a43.9 43.9 0 00-3.75 4.7 1.277 1.277 0 00.35 1.712 3.04 3.04 0 001.962.313 8.661 8.661 0 002.937-.675 10.27 10.27 0 002.525-1.325 5.641 5.641 0 002.425-4.974 10.349 10.349 0 00-.913-3.525c.138-.2.288-.413.425-.625a66.444 66.444 0 004.387-7.574 25.173 25.173 0 00.775 3.224 22.063 22.063 0 001.425 3.212 13.738 13.738 0 00-4.262 5.512c-.925 2.662-.2 3.862 1.162 4.138a4.2 4.2 0 002.137-.438 9.922 9.922 0 002.7-1.387c1.562-1.15 3.075-2.762 2.975-4.95a9.3 9.3 0 00-.675-2.925 15.262 15.262 0 017.762-.9c6.962.812 8.324 5.162 8.062 6.974a4.587 4.587 0 01-2.212 3.125c-.488.3-.638.413-.6.638.062.325.287.313.7.237a5.43 5.43 0 003.787-4.837c.2-4.25-3.887-8.924-11.123-8.887zM15.227 52.573c-2.3 2.512-5.524 3.462-6.912 2.662-1.487-.862-.9-4.562 1.937-7.237a37.043 37.043 0 015.425-4.049c.337-.2.825-.5 1.425-.862.1-.062.15-.087.15-.087.112-.075.237-.138.363-.213a9.974 9.974 0 01-2.388 9.787zm16.8-11.424c-.8 1.962-2.487 6.962-3.512 6.7-.875-.225-1.413-4.037-.175-7.787a17.225 17.225 0 012.737-5.012c1.262-1.413 2.65-1.863 2.975-1.3.437.737-1.525 6.174-2.025 7.4zm13.872 6.624c-.337.175-.65.287-.8.2-.112-.062.138-.3.138-.3s1.737-1.862 2.425-2.713c.4-.5.862-1.087 1.362-1.737 0 .062.012.125.012.2-.012 2.242-2.162 3.751-3.137 4.35zm10.7-2.438c-.25-.175-.213-.762.625-2.587a9.74 9.74 0 012.375-3.062 4.516 4.516 0 01.237 1.35 4.407 4.407 0 01-3.237 4.3z"/></g></svg>