<svg xmlns="http://www.w3.org/2000/svg" width="19" height="16"><path data-name="FontAwsome (twitter)" d="M17.047 3.988c.012.175.012.35.012.525 0 5.337-3.918 11.488-11.079 11.488A10.722 10.722 0 010 14.188a7.772 7.772 0 00.94.05 7.624 7.624 0 004.834-1.725 3.921 3.921 0 01-3.641-2.8 4.74 4.74 0 00.735.062 3.981 3.981 0 001.025-.137A4 4 0 01.772 5.675v-.05a3.817 3.817 0 001.76.512A4.075 4.075 0 01.8 2.775 4.12 4.12 0 011.33.738a10.944 10.944 0 008.029 4.225 4.719 4.719 0 01-.1-.925A3.966 3.966 0 0113.153 0 3.822 3.822 0 0116 1.275 7.5 7.5 0 0018.471.3a4 4 0 01-1.712 2.225A7.589 7.589 0 0019 1.9a8.546 8.546 0 01-1.953 2.088z"/></svg>