<svg xmlns="http://www.w3.org/2000/svg" width="60" height="60"><g data-name="グループ 23"><path data-name="パス 61" d="M0 0v60h60V0zm57.36 57.36H2.64V2.64h54.72v54.72z"/><g data-name="グループ 22"><path data-name="パス 62" d="M31.149 16.057H26.46l-5.033 10.527-5.1-10.527h-4.83l6.836 13.669-7.08 14h4.773l5.122-10.733 5.183 10.726h5.166l-7.3-14.161zm12.962 0v7.036H42.76c-4.611 0-10.185 2.973-10.185 10.568 0 5.871 2.975 10.284 9.311 10.284 4.665 0 6.863-1.614 6.863-1.614V16.057zm0 23.845a4.932 4.932 0 01-1.794.235c-1.26 0-5.126-.555-5.126-6.685s4.442-6.621 5.51-6.621a2.275 2.275 0 011.41.3v12.771z"/></g></g></svg>