<svg xmlns="http://www.w3.org/2000/svg" viewBox="0 0 750.55 429.53"><defs><style>.cls-1{fill:#fff;}.cls-2{fill:#d12b2b;}</style></defs><g id="レイヤー_2" data-name="レイヤー 2"><g id="レイヤー_1-2" data-name="レイヤー 1"><path class="cls-1" d="M21.2,284.44c1,.86,2,1.69,3.08,2.5s2.14,1.58,3.24,2.33,2.24,1.47,3.4,2.17,2.33,1.37,3.53,2,2.43,1.27,3.67,1.87,2.51,1.17,3.8,1.71,2.59,1.08,3.92,1.58,2.67,1,4,1.45,2.74.9,4.14,1.32,2.81.81,4.24,1.19,2.88.73,4.34,1.07,2.93.66,4.42,1,3,.58,4.51.85,3,.51,4.58.74,3.1.44,4.66.64,3.14.38,4.73.54,3.19.31,4.79.45,3.23.25,4.85.36,3.27.19,4.91.26,3.3.14,5,.19,3.33.08,5,.11,3.35,0,5,0,3.39,0,5.09,0l5.13-.12c1.72-.05,3.44-.11,5.16-.19s3.46-.15,5.19-.25,3.48-.2,5.22-.32,3.49-.24,5.24-.37,3.51-.28,5.27-.44,3.52-.31,5.28-.49,3.53-.35,5.3-.54,3.55-.39,5.32-.6l5.33-.64,5.34-.7c1.78-.24,3.56-.48,5.34-.74s3.57-.51,5.36-.78l5.35-.82c1.79-.29,3.58-.57,5.36-.87s3.58-.59,5.36-.9l5.36-.94,5.36-1,5.35-1,5.35-1,5.34-1.07,5.33-1.1,5.33-1.14,5.31-1.15,5.3-1.19,5.28-1.21q2.64-.6,5.27-1.23l5.26-1.25,5.24-1.28,5.22-1.29,5.2-1.32c1.73-.44,3.42-.86,5.12-1.27s3.37-.81,5-1.19,3.33-.76,5-1.11,3.29-.71,4.92-1l4.85-1c1.61-.31,3.21-.6,4.8-.89s3.16-.56,4.73-.82,3.13-.52,4.68-.76l4.63-.7,4.58-.63c1.52-.21,3-.4,4.53-.58s3-.36,4.48-.53l4.44-.48,4.39-.42,4.36-.39,4.31-.34,4.28-.29c1.43-.1,2.84-.18,4.25-.26l4.21-.23,4.18-.19,4.16-.16,4.12-.13c1.38-.05,2.74-.08,4.11-.11l4.07-.09,4.06-.06,4-.05,4,0,4,0h23.81l4,0,4,0,3.95-.05,3.95-.06,4-.09,4-.11,4-.15,4-.17,4-.21,4-.26,4.05-.3c1.35-.1,2.71-.22,4.07-.35s2.73-.26,4.1-.4,2.74-.3,4.12-.46,2.76-.34,4.15-.53,2.79-.38,4.19-.59,2.81-.43,4.23-.67,2.83-.48,4.26-.75,2.86-.54,4.3-.83,2.89-.6,4.35-.92,2.92-.66,4.4-1,2.95-.73,4.45-1.12,3-.8,4.5-1.23,3-.88,4.56-1.35,3.07-1,4.62-1.47,3.11-1,4.69-1.6,3.16-1.13,4.76-1.74,3.2-1.23,4.83-1.88,3.25-1.33,4.9-2,3.31-1.43,5-2.19,3.37-1.55,5.07-2.37,3.43-1.67,5.17-2.55,3.49-1.79,5.26-2.74,3.55-1.92,5.36-2.94,3.62-2.06,5.46-3.14,3.7-2.21,5.58-3.36,3.77-2.36,5.69-3.6,3.85-2.52,5.81-3.84q2.58-1.74,5.14-3.53t5.09-3.62c1.69-1.22,3.46-2.51,4.9-3.61s2.84-2.19,4.19-3.31,2.65-2.26,3.92-3.4,2.48-2.3,3.66-3.46,2.32-2.34,3.43-3.52,2.16-2.37,3.18-3.57,2-2.4,3-3.61,1.87-2.42,2.75-3.64,1.73-2.44,2.54-3.67,1.6-2.46,2.35-3.7,1.46-2.48,2.15-3.72,1.34-2.49,2-3.74,1.22-2.5,1.79-3.76,1.11-2.52,1.62-3.78,1-2.53,1.45-3.8.88-2.54,1.28-3.81.77-2.55,1.12-3.83.66-2.56,1-3.85.56-2.58.8-3.87.45-2.59.63-3.89.35-2.6.48-3.91.23-2.62.31-3.94.12-2.63.14-4,0-2.65,0-4-.11-2.68-.2-4-.23-2.69-.38-4-.35-2.71-.57-4.07-.47-2.74-.75-4.11-.61-2.76-1-4.15-.75-2.77-1.17-4.17-.9-2.8-1.4-4.21-1-2.83-1.63-4.25-1.21-2.84-1.89-4.27-1.38-2.87-2.14-4.31-1.58-2.89-2.44-4.34-1.77-2.9-2.73-4.36-2-2.92-3.06-4.38-2.21-2.93-3.41-4.4-2.45-2.94-3.77-4.41-2.71-2.94-4.17-4.41-3-2.94-4.6-4.4-3.29-2.93-5.06-4.39q-1.75-1.45-3.59-2.87T615.18,43c-1.26-.92-2.55-1.82-3.85-2.71s-2.64-1.76-4-2.62-2.71-1.7-4.1-2.53-2.8-1.65-4.24-2.45-2.88-1.59-4.35-2.36-3-1.54-4.48-2.28-3-1.48-4.59-2.2-3.12-1.41-4.71-2.1-3.2-1.36-4.83-2-3.27-1.3-4.94-1.93-3.35-1.25-5.05-1.85-3.43-1.19-5.17-1.76-3.49-1.13-5.27-1.67S552,13.46,550.23,13s-3.64-1-5.49-1.5S541,10.5,539.15,10s-3.78-.9-5.7-1.32-3.85-.84-5.8-1.24-3.92-.78-5.91-1.14-4-.72-6-1.06-4.06-.67-6.11-1-4.12-.61-6.21-.89-4.18-.55-6.3-.8-4.26-.49-6.41-.71-4.39-.43-6.47-.62S480.09,1,478.05.8,474,.54,472,.43s-4-.19-5.92-.25S462.2.07,460.29,0s-3.79,0-5.66,0-3.72,0-5.55.07-3.64.1-5.43.17-3.57.16-5.33.26-3.49.23-5.21.36-3.43.28-5.12.45-3.36.34-5,.53-3.3.4-4.93.61-3.23.46-4.83.7-3.18.5-4.75.77-3.13.56-4.67.85-3.07.6-4.59.92-3,.65-4.51,1-3,.69-4.44,1.05l-4.38,1.12c-1.44.39-2.88.78-4.3,1.19s-2.84.81-4.25,1.24-2.8.85-4.18,1.3-2.77.89-4.13,1.35-2.73.93-4.08,1.41-2.69,1-4,1.46-2.66,1-4,1.51-2.63,1-3.93,1.56-2.6,1.06-3.89,1.6-2.57,1.09-3.85,1.65-2.55,1.12-3.81,1.69-2.53,1.15-3.78,1.73l-3.75,1.77-3.72,1.81L326.51,32l-3.66,1.88-3.65,1.91c-1.21.65-2.42,1.29-3.62,2s-2.41,1.31-3.61,2l-3.6,2-3.58,2-3.57,2.06-3.57,2.08c-1.19.7-2.38,1.4-3.56,2.11l-3.56,2.12L287,54.24l-3.56,2.17-3.57,2.18-3.58,2.2L272.66,63l-3.6,2.22-3.62,2.24-3.64,2.25L258.14,72l-3.68,2.27-3.72,2.26c-1.24.76-2.48,1.52-3.74,2.27L243.23,81l-3.81,2.27-3.86,2.27c-1.29.75-2.52,1.47-3.7,2.13s-2.39,1.3-3.62,1.92-2.48,1.24-3.76,1.84-2.59,1.18-3.92,1.75-2.67,1.12-4.05,1.67-2.77,1.07-4.18,1.59-2.86,1-4.32,1.52-2.95,1-4.45,1.46-3,.94-4.57,1.4-3.1.9-4.69,1.34-3.18.87-4.8,1.29-3.25.84-4.91,1.26-3.32.81-5,1.21l-5.11,1.19-5.2,1.16L164,109.45l-5.37,1.13-5.44,1.13-5.51,1.14L142.09,114l-5.62,1.17-5.66,1.2-5.7,1.23-5.73,1.29q-2.86.65-5.74,1.34t-5.75,1.4c-1.92.49-3.84,1-5.76,1.49s-3.83,1-5.74,1.58-3.81,1.1-5.71,1.67-3.8,1.18-5.68,1.79-3.77,1.26-5.64,1.92-3.73,1.34-5.57,2.05-3.69,1.45-5.51,2.21-3.62,1.55-5.41,2.37-3.59,1.69-5.31,2.56-3.39,1.75-5,2.65-3.2,1.82-4.73,2.76-3,1.88-4.46,2.86-2.84,1.95-4.2,3-2.66,2-3.93,3.07-2.51,2.1-3.7,3.17-2.34,2.17-3.45,3.29-2.19,2.24-3.23,3.39-2,2.33-3,3.52-1.89,2.39-2.78,3.63-1.75,2.48-2.58,3.75-1.61,2.57-2.37,3.88-1.48,2.66-2.17,4-1.35,2.75-2,4.17-1.21,2.85-1.78,4.31-1.09,3-1.58,4.48-.89,2.8-1.41,4.72-1,3.81-1.46,5.67-.85,3.7-1.21,5.5-.69,3.59-1,5.34S1,219.88.81,221.59s-.37,3.38-.5,5-.22,3.3-.27,4.91,0,3.21,0,4.78.1,3.13.21,4.66S.5,244,.7,245.52s.43,3,.72,4.43.6,2.89,1,4.31.79,2.82,1.25,4.2,1,2.74,1.54,4.08,1.17,2.67,1.83,4,1.38,2.59,2.15,3.85,1.59,2.5,2.47,3.72,1.82,2.42,2.82,3.59,2.05,2.33,3.18,3.46S19.94,283.36,21.2,284.44Z"/><path class="cls-2" d="M17.51,271.46q.75-1.53,1.62-3c.57-1,1.18-2,1.81-3s1.29-2,2-3,1.47-2.12,2.3-3.29,1.76-2.41,2.8-3.79,2.22-2.91,3.58-4.65a43.53,43.53,0,0,0,2.54,4.21,48.28,48.28,0,0,0,3,3.87q1.59,1.86,3.34,3.55t3.66,3.21Q46,267.06,48,268.41c1.35.9,2.74,1.74,4.15,2.51s2.85,1.5,4.32,2.16,3,1.24,4.46,1.76,3,1,4.56,1.36,3.07.71,4.62.95,3.1.41,4.65.5a40.26,40.26,0,0,0,5.5,0,33.26,33.26,0,0,0,5-.72,27.94,27.94,0,0,0,4.4-1.4,23.54,23.54,0,0,0,3.83-2,21.44,21.44,0,0,0,5.94-5.76,23.55,23.55,0,0,0,2.09-3.67A28.12,28.12,0,0,0,103,259.9a33,33,0,0,0,.89-4.63,29.86,29.86,0,0,0,.22-5,22.48,22.48,0,0,0-.62-4.57,18.45,18.45,0,0,0-1.54-4.13A17.58,17.58,0,0,0,99.4,238a20.58,20.58,0,0,0-3.61-3.13A28,28,0,0,0,91,232.25a42,42,0,0,0-5.91-2.05c-1.68-.46-3.19-.89-4.59-1.29l-4-1.16-3.73-1.12-3.9-1.2L64.51,224c-1.93-.61-3.76-1.29-5.51-2a51.93,51.93,0,0,1-5-2.43,46.25,46.25,0,0,1-4.42-2.81,40.52,40.52,0,0,1-3.87-3.19A34.65,34.65,0,0,1,42.43,210a32.18,32.18,0,0,1-2.76-3.92,33.73,33.73,0,0,1-2.18-4.28c-.62-1.49-1.23-2.76-1.73-4.09a30.78,30.78,0,0,1-1.22-4,30.14,30.14,0,0,1-.63-4.12,29.14,29.14,0,0,1,0-4.18,29.94,29.94,0,0,1,.59-4.25,31.71,31.71,0,0,1,1.23-4.28,36.71,36.71,0,0,1,1.88-4.32,46.31,46.31,0,0,1,2.57-4.36c.74-1.1,1.52-2.18,2.35-3.24s1.71-2.09,2.64-3.1,1.88-2,2.89-3,2.06-1.93,3.14-2.87,2.22-1.87,3.38-2.78,2.35-1.8,3.58-2.68,2.49-1.75,3.78-2.6,2.62-1.7,4-2.53,2.72-1.65,4.12-2.46,2.83-1.61,4.27-2.39,2.92-1.57,4.4-2.33,3-1.53,4.52-2.27,3.06-1.49,4.61-2.21,3.12-1.44,4.7-2.15,3.16-1.4,4.76-2.08,3.2-1.35,4.81-2,3.23-1.31,4.85-1.94,3.25-1.26,4.88-1.86,3.25-1.2,4.88-1.78,3.25-1.14,4.88-1.69,3.24-1.08,4.86-1.6,3.22-1,4.83-1.49l4.79-1.38c1.58-.44,3.16-.86,4.73-1.26s3.13-.78,4.68-1.14,3.08-.69,4.6-1c2.51-.51,4.94-1,7.26-1.32s4.54-.66,6.66-.88,4.13-.35,6-.41,3.69,0,5.37.07a37.59,37.59,0,0,1,4.67.56,23.49,23.49,0,0,1,3.94,1.08,15.57,15.57,0,0,1,3.21,1.63,11,11,0,0,1,2.42,2.22,10.18,10.18,0,0,1,1.62,2.84,12.84,12.84,0,0,1,.77,3.49c-1.5,1.2-2.93,2.35-4.32,3.45l-4,3.16-3.78,2.94L176.28,134l-3.55,2.73-3.58,2.74-3.7,2.81-3.91,3-4.21,3.2c-1.47,1.11-3,2.27-4.62,3.5a15.83,15.83,0,0,0-.93-4.05,12.61,12.61,0,0,0-4.43-5.83,16.82,16.82,0,0,0-3.37-1.87,23.46,23.46,0,0,0-4-1.23,34.11,34.11,0,0,0-4.62-.63,48.44,48.44,0,0,0-5.14-.06c-1.78.07-3.64.23-5.56.48s-3.55.52-5.29.87-3.46.77-5.15,1.24-3.35,1-5,1.56-3.21,1.19-4.75,1.86-3,1.39-4.5,2.15-2.86,1.56-4.2,2.41-2.63,1.73-3.85,2.66a45,45,0,0,0-3.46,2.91,37.25,37.25,0,0,0-3,3.17,32.55,32.55,0,0,0-2.53,3.4,22.25,22.25,0,0,0-2.42,4.92,11.41,11.41,0,0,0-.62,4.29A8.11,8.11,0,0,0,81,173.84a10.33,10.33,0,0,0,2.78,3,18.88,18.88,0,0,0,4.42,2.35,35.7,35.7,0,0,0,6,1.69l4.45.92,3.89.8,3.71.75,3.92.79,4.53.89q2.73.54,5.24,1.23t4.82,1.55c1.53.56,3,1.19,4.39,1.86a41.75,41.75,0,0,1,4,2.21,35.52,35.52,0,0,1,3.54,2.56,18.28,18.28,0,0,1,3.11,2.93,40.18,40.18,0,0,1,2.58,3.75,42.11,42.11,0,0,1,2.17,4q1,2.1,1.78,4.33t1.4,4.61c.4,1.58.74,3.2,1,4.87s.49,3.36.65,5.11.25,3.52.28,5.33,0,3.67-.07,5.54-.23,3.79-.43,5.73-.46,3.9-.78,5.88-.66,3.87-1.06,5.74-.85,3.7-1.34,5.49-1,3.54-1.61,5.24-1.21,3.37-1.88,5-1.38,3.19-2.13,4.72-1.56,3-2.39,4.44-1.72,2.82-2.64,4.16-1.88,2.62-2.87,3.86-2,2.44-3.11,3.58-2.17,2.23-3.32,3.27-2.31,2-3.52,3-2.46,1.82-3.76,2.67-2.61,1.65-4,2.39-2.72,1.42-4.11,2-2.82,1.2-4.27,1.71-2.92,1-4.42,1.36-3,.73-4.56,1-3.1.49-4.69.64-3.2.24-4.84.26-3.29,0-5-.13-3.38-.28-5.1-.52q-2.25-.31-4.5-.78c-1.5-.31-3-.66-4.5-1.06s-3-.84-4.48-1.33-3-1-4.44-1.6-2.95-1.19-4.4-1.84-2.91-1.35-4.34-2.08-2.86-1.49-4.26-2.29-2.8-1.63-4.18-2.48-2.73-1.75-4.07-2.67-2.65-1.86-3.94-2.82-2.57-2-3.82-3-2.47-2-3.66-3.09-2.35-2.12-3.47-3.21-2.21-2.2-3.25-3.32S18.46,272.62,17.51,271.46Z"/><path class="cls-2" d="M247.42,107.74l-5.26,2.32-4.84,2.1-4.51,2L228.52,116l-4.2,1.77c-1.4.58-2.79,1.17-4.21,1.75s-2.72,1.1-4.11,1.62-2.82,1-4.33,1.58-3.09,1-4.76,1.59-3.44,1.08-5.32,1.63c.9-1.84,1.74-3.53,2.54-5.11s1.55-3,2.28-4.43,1.42-2.72,2.12-4,1.37-2.56,2.06-3.82l2.13-3.84c.73-1.3,1.49-2.64,2.29-4s1.65-2.86,2.57-4.42q2.7-1.09,5.22-2.22t4.82-2.28c1.55-.78,3-1.56,4.47-2.36s3.11-1.75,4.64-2.63,3-1.74,4.5-2.6l4.36-2.53,4.22-2.49,4.11-2.44,4-2.4,3.95-2.37,3.9-2.34,3.87-2.33,3.86-2.31,3.86-2.31,3.88-2.32L285.19,58l4-2.35,4.07-2.38,4.18-2.4,4.29-2.44,4.43-2.48c1.5-.84,3-1.68,4.6-2.52s3.15-1.7,4.78-2.56,3.28-1.73,5-2.61,3.44-1.75,5.22-2.64c.28,1.73.53,3.37.75,4.94s.42,3.07.6,4.52.35,2.87.5,4.26.28,2.77.41,4.16.25,2.78.37,4.21.22,2.91.32,4.45.2,3.16.29,4.88.18,3.54.26,5.51c-1.84.68-3.59,1.35-5.26,2s-3.27,1.27-4.81,1.88-3,1.2-4.48,1.79l-4.25,1.74-4.14,1.74-4.14,1.76-4.26,1.85-4.48,2-4.8,2.12-5.24,2.33c-.21,1.78-.43,3.56-.65,5.33l-.66,5.29c-.23,1.76-.45,3.51-.68,5.25s-.45,3.49-.68,5.22-.45,3.47-.68,5.19-.45,3.45-.67,5.16-.45,3.42-.67,5.13-.45,3.41-.67,5.11-.43,3.39-.65,5.09-.43,3.38-.64,5.07l-.63,5.06c-.21,1.69-.41,3.37-.61,5.06s-.41,3.37-.6,5.06-.39,3.37-.58,5.06-.45,3.61-.67,5.43-.44,3.62-.66,5.4-.41,3.55-.62,5.3-.39,3.48-.58,5.2-.38,3.43-.56,5.13-.36,3.37-.53,5-.33,3.33-.5,5-.32,3.29-.47,4.92-.3,3.25-.45,4.86l-.42,4.82c-.14,1.6-.27,3.19-.4,4.78s-.25,3.17-.37,4.75-.24,3.14-.35,4.71l-.33,4.69-.3,4.67c-.1,1.56-.19,3.11-.28,4.65s-.17,3.1-.25,4.64-.16,3.08-.23,4.62-.14,3.07-.21,4.61S266,260,266,261.54s-.11,3.06-.15,4.58-.09,3-.13,4.56-.1,3.05-.19,4.62-.16,3.14-.22,4.7-.09,3.12-.1,4.68l-5.27,1.25-4.82,1.12-4.5,1-4.28,1-4.16.92-4.16.89-4.27.91-4.49.92-4.81,1-5.23,1q0-2.3,0-4.59c0-1.54.06-3.07.13-4.62s.1-3,.13-4.54.06-3,.1-4.51.1-3,.16-4.54.12-3,.2-4.55.16-3.05.25-4.57.19-3.06.29-4.6.22-3.07.34-4.61.24-3.09.38-4.64.27-3.1.42-4.65.3-3.12.46-4.69.33-3.14.5-4.72l.54-4.76c.19-1.59.39-3.19.59-4.8s.41-3.22.62-4.85.44-3.26.67-4.9.47-3.3.71-5,.5-3.34.76-5,.53-3.39.81-5.12.56-3.45.85-5.2.6-3.52.91-5.31.63-3.59,1-5.41.67-3.67,1-5.54.64-3.48,1-5.17.64-3.37,1-5.05.66-3.36,1-5,.69-3.35,1-5l1.08-5q.56-2.52,1.12-5t1.16-5c.39-1.68.79-3.37,1.2-5.05s.81-3.38,1.23-5.08.84-3.39,1.27-5.09.87-3.4,1.31-5.11.89-3.42,1.34-5.13.91-3.44,1.37-5.16S246.94,109.47,247.42,107.74Z"/><path class="cls-2" d="M345.58,26.4q2.51-1.06,4.92-2t4.79-1.9c1.57-.61,3.12-1.19,4.65-1.76s3-1.11,4.53-1.63,3-1,4.44-1.52,2.92-.95,4.36-1.41,2.87-.89,4.3-1.31,2.84-.83,4.25-1.23,2.82-.77,4.23-1.14,2.82-.73,4.23-1.08,2.82-.68,4.24-1,2.85-.64,4.29-.94l4.35-.88c1.46-.28,2.94-.55,4.44-.82L412.15,7c1.54-.24,3.1-.48,4.7-.7s3.21-.43,4.86-.64,3.34-.39,5.06-.57,3.49-.34,5.3-.49,3.65-.29,5.55-.42,3.86-.23,5.86-.32,4.07-.16,6.2-.21,4.32-.07,6.58-.08q1.1,2.48,2,4.75c.63,1.53,1.21,3,1.75,4.41s1.06,2.8,1.54,4.16.95,2.67,1.39,4,.87,2.62,1.28,3.92.82,2.62,1.21,4,.79,2.69,1.18,4.09.77,2.85,1.16,4.35.77,3.06,1.16,4.71.78,3.36,1.17,5.18c-2.07,0-4.06,0-6,0s-3.78,0-5.59.07-3.55.08-5.26.14-3.35.12-5,.19l-4.74.25c-1.55.09-3.06.18-4.55.29s-3,.21-4.42.33-2.88.24-4.31.38-2.84.27-4.26.42-2.82.3-4.24.47-2.83.34-4.26.52l-4.32.58-4.42.65c-1.5.23-3,.48-4.56.73s-3.12.53-4.72.82-3.25.6-4.93.92-3.39.67-5.16,1q.45,2.77.82,5.35c.26,1.73.48,3.4.7,5s.4,3.21.58,4.76.35,3.06.51,4.56.3,3,.44,4.44.27,2.93.39,4.4.24,2.94.35,4.43.21,3,.31,4.55.19,3.13.28,4.75.17,3.31.25,5.05.15,3.54.21,5.42.13,3.84.18,5.9c1.9-.27,3.74-.51,5.53-.74l5.21-.63c1.69-.2,3.34-.38,5-.55l4.74-.48,4.58-.43,4.48-.37,4.41-.33,4.41-.29,4.46-.26,4.56-.22c1.55-.07,3.12-.14,4.72-.19s3.25-.12,4.94-.16,3.42-.09,5.21-.12,3.64-.06,5.55-.08,3.89,0,5.95,0c0,1.8.06,3.52.08,5.18s0,3.25,0,4.79,0,3,0,4.49,0,2.89-.06,4.29-.06,2.79-.1,4.17-.11,2.83-.18,4.26-.13,2.87-.21,4.32-.16,2.93-.25,4.43-.19,3-.29,4.64-.23,3.22-.36,4.92-.27,3.46-.43,5.3l-5.74.05-5.36.08-5.06.1-4.81.13-4.61.16-4.46.17-4.37.2-4.34.22-4.36.26-4.42.28-4.55.33c-1.54.11-3.11.23-4.71.37l-4.95.42-5.21.5q-2.68.27-5.55.58c-.09,2.13-.17,4.17-.26,6.13s-.17,3.83-.26,5.64-.18,3.56-.27,5.25-.18,3.33-.27,4.93-.19,3.16-.28,4.7-.19,3-.29,4.53-.19,3-.3,4.44-.2,3-.31,4.43-.22,3-.34,4.47-.24,3-.37,4.58-.26,3.13-.4,4.74-.29,3.27-.45,5-.32,3.44-.5,5.23q3-.21,5.86-.38l5.48-.32,5.17-.26,4.91-.21,4.71-.19,4.57-.15,4.48-.14,4.44-.11,4.47-.1,4.53-.1,4.67-.08,4.85-.07,5.08-.08,5.38-.07,5.72-.07c-.46,1.91-.91,3.7-1.35,5.4s-.86,3.29-1.28,4.81-.83,3-1.24,4.4-.81,2.78-1.21,4.12-.82,2.66-1.23,4-.85,2.64-1.29,4-1.1,2.85-1.67,4.33l-1.74,4.58q-.9,2.37-1.86,4.93l-5.46.1-5.23.06-5.05,0-4.87,0H421l-4.53,0-4.46,0-4.43,0-4.41,0-4.44.06-4.48.08-4.56.1-4.67.14-4.8.17-5,.22-5.18.27c-1.77.1-3.58.21-5.43.34s-3.75.26-5.71.41-4,.32-6,.51-4.19.4-6.39.63c.14-1.63.29-3.26.46-4.9s.35-3.28.55-4.92.38-3.28.5-4.86l.33-4.76.33-4.79c.1-1.61.21-3.21.31-4.82l.3-4.83.3-4.86c.09-1.62.19-3.24.28-4.87s.19-3.25.28-4.89.19-3.26.27-4.9.18-3.27.27-4.92.17-3.28.26-4.93.16-3.3.25-5l.24-5,.24-5,.24-5c.08-1.68.15-3.35.23-5s.15-3.37.23-5.06.14-3.39.22-5.1.14-3.41.22-5.13l.21-5.17.21-5.21c.08-1.75.14-3.5.21-5.26s.14-3.53.21-5.31.1-3.43.13-5.08.06-3.31.08-5,.05-3.29.07-4.92,0-3.28,0-4.91,0-3.25,0-4.88,0-3.25,0-4.87,0-3.24,0-4.86l-.06-4.85c0-1.61-.06-3.23-.1-4.84s-.08-3.23-.13-4.85-.11-3.23-.17-4.85-.13-3.23-.21-4.85-.17-3.24-.26-4.86-.2-3.25-.31-4.87-.24-3.26-.37-4.88-.27-3.27-.42-4.9-.32-3.27-.5-4.91-.36-3.28-.56-4.92-.42-3.29-.64-4.94-.48-3.3-.73-5-.54-3.31-.83-5-.6-3.32-.92-5-.68-3.33-1-5S346,28.08,345.58,26.4Z"/><path class="cls-2" d="M495.63,5.79q3.09.34,5.89.69t5.4.7c1.73.23,3.38.47,5,.71s3.15.48,4.66.73,3,.49,4.41.74,2.85.51,4.24.77,2.77.52,4.15.8,2.73.55,4.1.84l4.13.9c1.39.31,2.79.64,4.22,1s2.87.69,4.35,1.07,3,.77,4.53,1.19,3.13.86,4.75,1.33,3.36,1,5,1.58,3.26,1.17,4.86,1.8,3.17,1.31,4.73,2,3.09,1.44,4.6,2.2,3,1.56,4.5,2.38,3,1.66,4.4,2.53,2.88,1.76,4.3,2.68,2.83,1.85,4.22,2.81,2.76,1.94,4.12,2.93,2.71,2,4,3.05,2.65,2.08,3.95,3.14,2.59,2.14,3.87,3.23,2.53,2.2,3.76,3.32,2.47,2.26,3.67,3.4,2.39,2.3,3.56,3.47,2.31,2.35,3.44,3.54,2.22,2.4,3.3,3.61,2.13,2.44,3.16,3.68,2,2.48,3,3.74,1.91,2.53,2.82,3.81,1.77,2.58,2.61,3.88,1.63,2.63,2.39,4,1.48,2.68,2.15,4,1.3,2.74,1.89,4.12,1.11,2.8,1.59,4.22.91,2.85,1.28,4.31.69,2.92.94,4.41.47,3.17.59,4.71.16,3.06.13,4.55a42.18,42.18,0,0,1-.31,4.39,39.69,39.69,0,0,1-.73,4.25c-.31,1.39-.69,2.76-1.13,4.1s-.95,2.67-1.52,4-1.2,2.58-1.88,3.84-1.43,2.49-2.23,3.7-1.66,2.42-2.57,3.6-1.87,2.33-2.87,3.47S633,147.9,631.9,149s-2.24,2.15-3.43,3.18-2.42,2.05-3.69,3-2.57,1.95-3.91,2.88-2.72,1.84-4.14,2.71-2.85,1.72-4.33,2.53-3,1.6-4.52,2.34-3.1,1.47-4.69,2.14-3.21,1.32-4.85,1.92-3.31,1.17-5,1.69-3.4,1-5.14,1.43-3.49.83-5.28,1.17-3.58.65-5.4.9-3.67.44-5.54.59-3.76.24-5.68.28l-4,.08-3.5,0-3.52,0-4.11,0q-.79,3-1.6,5.78t-1.62,5.44c-.55,1.75-1.09,3.46-1.64,5.12s-1.11,3.28-1.66,4.86-1.12,3.12-1.68,4.63-1.12,3-1.69,4.43-1.14,2.86-1.72,4.26-1.15,2.78-1.74,4.13-1.19,2.71-1.79,4-1.22,2.65-1.84,4-1.26,2.61-1.91,3.92-1.31,2.6-2,3.89-1.37,2.6-2.08,3.91-1.44,2.61-2.19,3.93-1.53,2.64-2.33,4-1.63,2.68-2.49,4-1.93,2.88-3,4.37-2.06,3-3.12,4.54l-3.23,4.65c-1.9.36-3.67.68-5.34,1s-3.23.54-4.74.77l-4.39.64-4.26.55c-1.42.17-2.87.34-4.37.5s-3.06.32-4.71.47l-5.29.45,2.46-4.81q1.23-2.42,2.48-4.83c.83-1.62,1.72-3.27,2.41-4.8s1.37-3,2-4.58,1.3-3.06,1.94-4.59,1.24-3.07,1.84-4.61,1.19-3.08,1.76-4.63,1.13-3.08,1.67-4.63,1.08-3.09,1.59-4.63,1-3.1,1.51-4.65,1-3.09,1.44-4.64.92-3.1,1.36-4.65.87-3.1,1.29-4.65.82-3.11,1.22-4.66.78-3.1,1.15-4.66.74-3.1,1.09-4.66.7-3.11,1-4.66.66-3.12,1-4.67.61-3.12.91-4.68.57-3.13.85-4.69.54-3.13.79-4.7.5-3.14.74-4.71.47-3.15.69-4.73.43-3.16.63-4.74.39-3.17.58-4.77.36-3.18.52-4.78.33-3.21.48-4.82.3-3.25.41-4.81.23-3.13.32-4.69.19-3.13.27-4.69.14-3.12.2-4.69.1-3.12.14-4.69.06-3.12.07-4.69,0-3.13,0-4.7,0-3.15-.06-4.72-.08-3.15-.13-4.73-.13-3.16-.21-4.74-.17-3.18-.28-4.77-.23-3.18-.36-4.78-.28-3.2-.45-4.81-.34-3.22-.54-4.83-.4-3.24-.63-4.86-.47-3.25-.73-4.89-.54-3.27-.83-4.91-.61-3.29-.95-5-.69-3.31-1.06-5-.77-3.34-1.19-5-.86-3.35-1.32-5-.95-3.37-1.46-5.06-1-3.4-1.62-5.1S502.63,23,502,21.32s-1.26-3.43-1.94-5.16-1.39-3.44-2.13-5.17S496.43,7.53,495.63,5.79ZM555.22,53q.67,2.81,1.23,5.47c.38,1.78.71,3.51,1,5.2s.59,3.36.84,5,.48,3.22.69,4.79.4,3.11.56,4.63.32,3,.46,4.53.25,3,.35,4.45.19,2.95.26,4.43.14,3,.18,4.45.08,3,.1,4.51,0,3,0,4.62,0,3.15-.08,4.77-.1,3.28-.17,5-.17,3.44-.29,5.22-.25,3.63-.41,5.53-.35,3.84-.56,5.86l5.13.37,4.42.31,5,.36q3.07.23,5.87.16a47.12,47.12,0,0,0,5.34-.4,36.73,36.73,0,0,0,4.82-.94,31.17,31.17,0,0,0,4.31-1.47,25.82,25.82,0,0,0,3.8-2,22.82,22.82,0,0,0,3.3-2.52,23.05,23.05,0,0,0,2.79-3,24.64,24.64,0,0,0,2.26-3.58,27.78,27.78,0,0,0,1.71-4.12,32.08,32.08,0,0,0,1.12-4.66,40.11,40.11,0,0,0,.52-5.22,52.11,52.11,0,0,0-.14-5.8c-.16-1.9-.39-3.73-.71-5.49a51.26,51.26,0,0,0-1.19-5.06,46.43,46.43,0,0,0-1.63-4.66,42.9,42.9,0,0,0-4.45-8.21A42.18,42.18,0,0,0,599,71.84a43.54,43.54,0,0,0-3.11-3.26Q594.2,67,592.4,65.64c-1.21-.92-2.47-1.8-3.8-2.62s-2.7-1.59-4.14-2.3-3-1.38-4.52-2-3.2-1.16-4.91-1.66-3.49-.93-5.35-1.32l-4.95-1-4.39-.84Z"/><path class="cls-1" d="M351.85,409.21c1.67.68,3.36,1.28,5.08,1.82s3.44,1,5.18,1.44,3.51.79,5.28,1.1,3.56.58,5.35.8,3.6.39,5.4.53,3.63.23,5.45.3,3.64.09,5.46.09,3.65,0,5.47-.07,3.65-.12,5.47-.21,3.64-.21,5.45-.33,3.61-.27,5.41-.42l5.38-.49c1.78-.17,3.56-.35,5.33-.54l5.26-.55,5.2-.57,5.11-.55,5-.52,4.94-.47c1.63-.15,3.24-.29,4.84-.41s3.18-.24,4.74-.33,3.1-.18,4.62-.24,3-.11,4.51-.14,2.94,0,4.38,0,2.86.05,4.26.11,2.77.15,4.13.26,2.68.25,4,.42,2.59.35,3.85.58,2.46.48,3.85.79,2.78.62,4.16.93l4.11,1,4.07,1,4,1,4,1,4,1,4,1,3.95,1,3.94,1,3.94.94,3.93.91,3.93.88,3.94.85c1.31.28,2.62.55,3.94.81s2.64.52,4,.76,2.65.49,4,.72,2.67.45,4,.66,2.68.41,4,.6,2.7.38,4.06.54,2.72.33,4.09.47,2.75.27,4.14.39,2.78.22,4.18.31,2.82.16,4.24.22,2.85.1,4.28.13,2.89,0,4.35,0,2.93,0,4.41-.09,3-.11,4.49-.2,3-.2,4.56-.33,3.08-.28,4.64-.46,3.13-.37,4.72-.6,3.2-.47,4.83-.75,3.26-.58,4.92-.91,3.33-.7,5-1.09,3.41-.81,5.15-1.26,3.48-.94,5.26-1.46,3.57-1.08,5.39-1.67,3.65-1.21,5.52-1.88,3.75-1.36,5.67-2.11,3.85-1.53,5.82-2.36,3.87-1.65,5.76-2.5,3.76-1.71,5.6-2.59,3.65-1.76,5.43-2.66,3.53-1.81,5.26-2.74,3.42-1.86,5.08-2.81,3.31-1.92,4.91-2.9,3.19-2,4.74-3,3.07-2,4.55-3,2.95-2.07,4.37-3.13,2.82-2.11,4.19-3.19,2.69-2.17,4-3.27,2.57-2.22,3.8-3.34,2.44-2.26,3.6-3.41,2.3-2.31,3.4-3.48c1.73-1.84,3.32-3.65,4.79-5.44s2.83-3.54,4.09-5.28,2.39-3.45,3.45-5.13,2-3.34,2.89-5,1.68-3.24,2.4-4.83,1.36-3.15,1.94-4.69,1.1-3.06,1.55-4.55.84-3,1.18-4.43.62-2.89.85-4.31.41-2.82.54-4.2.22-2.76.26-4.11,0-2.69,0-4-.13-2.64-.26-3.94-.3-2.59-.51-3.86-.47-2.55-.76-3.8-.62-2.51-1-3.74-.79-2.47-1.24-3.69-1-2.44-1.49-3.64-1.12-2.4-1.75-3.59-1.3-2.37-2-3.54-1.48-2.34-2.3-3.49-1.67-2.3-2.59-3.43-1.88-2.26-2.9-3.36-2.11-2.2-3.25-3.28-2.33-2.14-3.59-3.18-2.59-2.05-4-3-2.86-2-4.39-2.9c-1.71-1-3.47-2-5.26-2.92s-3.63-1.74-5.5-2.51-3.65-1.41-5.89-2.15-4.41-1.44-6.55-2.1S691.07,253,689,252.4s-4.07-1.08-6-1.56-3.91-.92-5.8-1.33-3.76-.77-5.59-1.1-3.62-.63-5.38-.89-3.49-.5-5.19-.7-3.38-.37-5-.52-3.26-.26-4.86-.35-3.16-.15-4.7-.19-3.07-.06-4.57,0-3,0-4.44.08-2.9.12-4.32.2-2.82.2-4.21.32-2.76.27-4.12.42-2.7.33-4,.52-2.64.39-4,.61-2.59.44-3.87.68-2.56.49-3.82.75-2.51.54-3.76.83-2.48.57-3.71.87l-3.67.94c-1.21.31-2.42.64-3.63,1s-2.41.67-3.61,1-2.4.69-3.59,1.05l-3.57,1.08c-1.19.37-2.38.73-3.57,1.11l-3.57,1.12-3.56,1.14-3.58,1.14-3.6,1.16-3.62,1.15L558.43,264c-1.22.38-2.45.77-3.68,1.14L551,266.3l-3.76,1.11-3.82,1.1-3.87,1.07-3.93,1c-1.32.35-2.65.68-4,1s-2.7.66-4.07,1-2.76.63-4.16.94-2.81.6-4.24.89-2.87.57-4.33.84-2.94.53-4.44.79-3,.49-4.54.73-3.08.45-4.65.66-3.16.41-4.77.6-3.25.37-4.91.53-3.33.31-5,.45-3.4.25-5.18.36l-5.34.35-5.37.38-5.4.43c-1.8.14-3.61.3-5.42.46l-5.43.51c-1.81.18-3.63.36-5.44.56l-5.46.6c-1.82.21-3.64.42-5.46.65l-5.45.7-5.46.76-5.44.82q-2.72.42-5.42.88t-5.4.94q-2.7.48-5.38,1c-1.78.35-3.56.7-5.33,1.07s-3.54.76-5.3,1.15-3.5.8-5.24,1.22-3.47.86-5.18,1.3-3.43.91-5.12,1.39-3.37,1-5,1.47-3.31,1-4.94,1.56-3.26,1.09-4.85,1.66-3.18,1.16-4.74,1.76-3.1,1.23-4.62,1.87-3,1.3-4.48,2-2.91,1.37-4.33,2.09-2.8,1.45-4.16,2.21-2.69,1.54-4,2.35-2.56,1.62-3.79,2.47-2.41,1.72-3.57,2.62-2.26,1.82-3.33,2.76q-2,1.81-3.78,3.65t-3.17,3.68q-1.44,1.86-2.61,3.72a40.07,40.07,0,0,0-2.1,3.74,38.36,38.36,0,0,0-1.62,3.78,34.15,34.15,0,0,0-1.17,3.82c-.32,1.28-.57,2.57-.76,3.87a39.35,39.35,0,0,0-.34,3.92,38.21,38.21,0,0,0,0,4q.1,2,.42,4.08c.2,1.37.47,2.77.81,4.18s.73,2.85,1.2,4.32,1,2.94,1.61,4.46,1.29,3.06,2,4.63,1.59,3.2,2.51,4.85,1.92,3.34,3,5.08,2.1,3.23,3.14,4.64,2.14,2.77,3.29,4.07,2.35,2.55,3.61,3.74,2.58,2.34,4,3.42,2.84,2.11,4.35,3.08,3.1,1.88,4.75,2.74S350.05,408.48,351.85,409.21Z"/><path class="cls-2" d="M332.71,315.16c1.22-.89,2.32-1.65,3.38-2.34s2.05-1.32,3.08-1.94,2.07-1.22,3.23-1.86,2.44-1.33,3.94-2.09a14.89,14.89,0,0,0-.1,3,20.6,20.6,0,0,0,.43,3.07,28.64,28.64,0,0,0,.86,3.13c.35,1.06.76,2.12,1.22,3.19s1,2.16,1.55,3.26,1.19,2.23,1.85,3.37,1.4,2.31,2.17,3.51,1.61,2.43,2.51,3.7,1.86,2.59,2.9,4,2.15,2.79,3.36,4.29,2.5,3.06,3.9,4.7,2.91,3.38,4.54,5.22,3.41,3.76,5.33,5.82q.51-2.83,1.13-5.48t1.3-5.1q.69-2.47,1.43-4.78t1.55-4.51c.53-1.46,1.08-2.88,1.64-4.27s1.13-2.75,1.72-4.08,1.19-2.64,1.8-3.92,1.25-2.56,1.89-3.81,1.31-2.5,2-3.74,1.38-2.46,2.09-3.68,1.46-2.45,2.22-3.67,1.55-2.45,2.37-3.68,1.65-2.47,2.53-3.72,1.78-2.5,2.72-3.78,1.92-2.55,2.94-3.85,2.08-2.62,3.19-3.95,2.27-2.69,3.48-4.05c1.62-.29,3.1-.54,4.48-.77l3.92-.63,3.76-.57,4-.58,4.62-.63q-.44,2.19-.75,4.38c-.22,1.47-.4,2.93-.56,4.4s-.27,2.94-.37,4.41-.16,2.94-.21,4.41-.05,2.94,0,4.42,0,2.95.1,4.42.14,3,.24,4.43.23,3,.38,4.45.32,3,.51,4.47.4,3,.63,4.5.49,3,.77,4.54.58,3.06.9,4.6.66,3.09,1,4.66.76,3.15,1.17,4.75.85,3.21,1.31,4.85.95,3.28,1.46,5,1.06,3.37,1.63,5.1,1.17,3.47,1.81,5.25,1.3,3.59,2,5.44,1.26,3.43,1.87,5.08,1.25,3.28,1.89,4.89,1.29,3.21,1.95,4.78,1.34,3.14,2,4.69,1.38,3.08,2.08,4.59,1.42,3,2.14,4.49,1.45,2.95,2.19,4.4,1.49,2.88,2.24,4.3c-1.9.07-3.59.16-5.17.26s-3.05.2-4.53.31-3,.24-4.59.39-3.38.31-5.4.51q-1.33-1.84-2.59-3.71c-.84-1.25-1.66-2.49-2.46-3.74s-1.57-2.51-2.33-3.77-1.5-2.53-2.22-3.8-1.43-2.56-2.12-3.85-1.37-2.59-2-3.91-1.31-2.64-1.95-4-1.27-2.72-1.89-4.11-1.13-2.64-1.84-4.24-1.39-3.2-2.06-4.79-1.29-3.16-1.91-4.74-1.21-3.16-1.79-4.75-1.13-3.17-1.66-4.77-1-3.21-1.55-4.83-1-3.26-1.42-4.92-.89-3.33-1.29-5-.8-3.41-1.15-5.16-.69-3.51-1-5.3c-.69,1.8-1.32,3.54-1.9,5.25s-1.11,3.36-1.59,5-.92,3.21-1.32,4.78-.76,3.1-1.09,4.62-.63,3-.9,4.52-.51,3-.72,4.48-.39,3-.55,4.5-.29,3.05-.39,4.61-.18,3.14-.22,4.77-.05,3.3,0,5-.15,3.13-.21,4.69-.09,3.14-.12,4.73,0,3.17,0,4.78l-4.38.61-3.81.53-4.34.57c-1.57-1.15-3.09-2.28-4.56-3.41s-2.88-2.24-4.25-3.36-2.68-2.22-4-3.32-2.59-2.32-3.89-3.54-2.53-2.41-3.73-3.57-2.36-2.28-3.49-3.39-2.22-2.19-3.28-3.26-2.11-2.12-3.12-3.17-2-2.09-3-3.12-1.94-2.06-2.9-3.1-1.89-2.06-2.81-3.1-1.85-2.09-2.75-3.14-1.8-2.12-2.69-3.19-1.75-2.16-2.61-3.26-1.7-2.21-2.52-3.33c.18,1.7.42,3.39.71,5.05s.64,3.29,1,4.91.82,3.22,1.3,4.81,1,3.15,1.55,4.71,1.15,3.11,1.78,4.65,1.3,3.08,2,4.61,1.45,3.07,2.23,4.61,1.6,3.09,2.46,4.64,1.69,3,2.48,4.35,1.6,2.61,2.43,3.87,1.68,2.48,2.56,3.68,1.79,2.37,2.72,3.52,1.91,2.27,2.92,3.38,2,2.19,3.13,3.26,2.2,2.11,3.37,3.13,2.39,2,3.66,3,2.59,1.95,4,2.9c-2-.15-3.67-.32-5.23-.51s-3-.39-4.41-.62-2.82-.49-4.32-.81-3.11-.71-4.91-1.21q-2.53-1.25-4.88-2.66t-4.51-3c-1.44-1-2.83-2.13-4.15-3.27s-2.6-2.32-3.82-3.56-2.39-2.51-3.51-3.83-2.19-2.7-3.21-4.12-1.85-2.66-3-4.43-2.13-3.51-3.08-5.2-1.81-3.34-2.6-5-1.52-3.21-2.18-4.77-1.26-3.08-1.79-4.59-1-3-1.42-4.44-.76-2.89-1.06-4.31-.53-2.83-.72-4.21-.31-2.77-.38-4.13-.09-2.71-.05-4.05.14-2.67.3-4,.37-2.64.65-3.95.62-2.62,1-3.92.88-2.6,1.42-3.89,1.16-2.58,1.85-3.87,1.45-2.56,2.3-3.84,1.77-2.56,2.79-3.83S331.51,316.42,332.71,315.16Z"/><path class="cls-2" d="M490.09,278.73c2-.19,3.85-.38,5.52-.57s3.21-.38,4.68-.57l4.35-.61c1.45-.21,2.92-.44,4.49-.7s3.22-.54,5-.88c.4,1.32.81,2.65,1.22,4s.83,2.68,1.25,4,.85,2.71,1.28,4.07.87,2.73,1.31,4.11.88,2.75,1.32,4.14.89,2.77,1.34,4.16l1.35,4.19c.45,1.4.9,2.8,1.36,4.21s.91,2.82,1.37,4.24.91,2.85,1.37,4.28.93,2.86,1.39,4.3.93,2.89,1.39,4.35.94,2.92,1.4,4.39l1.42,4.45c.47,1.49.94,3,1.42,4.5s.95,3,1.43,4.58,1,3.09,1.44,4.66,1,3.15,1.46,4.75l1.48,4.85,1.49,5q.75,2.52,1.5,5.1t1.53,5.23c.51,1.77,1,3.58,1.48,5.29s.88,3.43,1.31,5.14.84,3.44,1.25,5.17.79,3.46,1.17,5.2.74,3.49,1.08,5.24.68,3.53,1,5.31.6,3.57.87,5.37.52,3.62.74,5.45.41,3.67.57,5.52.29,3.73.39,5.62l-4.6-.82-4-.77-3.77-.78c-1.26-.26-2.56-.54-4-.85l-4.55-1c-.22-1.82-.45-3.5-.69-5.09s-.49-3.1-.75-4.56-.54-2.88-.82-4.31-.6-2.88-.93-4.39-.69-3.08-1.1-4.78-.86-3.53-1.38-5.54l-4.91-.54-4.45-.51-4.14-.49-4-.49-4-.49-4.22-.53-4.59-.58-5.15-.65c-.09,2.06-.18,3.86-.26,5.51s-.15,3.12-.22,4.54-.14,2.76-.21,4.11-.14,2.71-.22,4.13-.16,2.9-.26,4.48c-2.05-.46-3.66-.8-5.16-1.07s-2.92-.46-4.36-.63-2.9-.31-4.51-.42-3.36-.21-5.41-.25c-.15-1.46-.29-2.93-.42-4.42s-.25-3-.36-4.52-.22-3.07-.32-4.63-.18-3.13-.26-4.72-.15-3.2-.21-4.82-.11-3.26-.16-4.92-.08-3.32-.1-5,0-3.32-.11-5.19-.19-3.7-.23-5.5-.07-3.59-.06-5.34,0-3.48.1-5.19.14-3.4.25-5.06.24-3.32.39-5,.33-3.26.53-4.87.41-3.21.65-4.8.52-3.17.82-4.74.62-3.14,1-4.7.7-3.12,1.09-4.68.78-3.12,1.2-4.67.87-3.12,1.34-4.68,1-3.12,1.47-4.68,1.05-3.13,1.6-4.7,1.13-3.14,1.72-4.72,1.22-3.16,1.86-4.75,1.3-3.19,2-4.79,1.4-3.21,2.13-4.83S489.31,280.35,490.09,278.73Zm2.68,86.59c1.93.14,3.68.26,5.32.36l4.63.3,4.27.26,4.24.24,4.51.23,5.07.22c-.68-2.07-1.32-4.05-1.94-5.94s-1.22-3.71-1.79-5.45-1.13-3.41-1.66-5l-1.55-4.69c-.5-1.52-1-3-1.46-4.45s-.94-2.87-1.4-4.27L509.64,333c-.45-1.38-.89-2.74-1.34-4.11s-.89-2.74-1.34-4.13l-1.36-4.19c-.45-1.42-.92-2.85-1.38-4.31s-.94-2.95-1.42-4.47l-1.47-4.66q-.66,2.67-1.25,5.18t-1.1,4.9c-.35,1.58-.67,3.13-1,4.66s-.59,3-.87,4.48-.53,2.94-.78,4.39-.48,2.91-.7,4.37-.44,2.92-.65,4.41-.4,3-.58,4.55-.36,3.13-.53,4.76-.32,3.33-.46,5.08-.27,3.57-.39,5.48S492.84,363.23,492.77,365.32Z"/><path class="cls-2" d="M557.67,264.26l5.06-1.6,4.4-1.41,4.06-1.3,4-1.28,4.29-1.36,4.85-1.5c1.61-.49,3.18-.88,4.72-1.19a38.53,38.53,0,0,1,4.54-.61,32.09,32.09,0,0,1,4.38,0,29.9,29.9,0,0,1,4.25.51,31.32,31.32,0,0,1,4.13,1.07,32.65,32.65,0,0,1,4,1.62,35.45,35.45,0,0,1,3.87,2.17A39.08,39.08,0,0,1,618,262a43.21,43.21,0,0,1,3.55,3.27,48,48,0,0,1,3.33,3.82,50.33,50.33,0,0,1,3.07,4.4,56,56,0,0,1,2.77,5c.86,1.76,1.67,3.62,2.41,5.59s1.4,4,2,6.23q.75,2.81,1.21,5.54a51.42,51.42,0,0,1,.63,5.4,48.05,48.05,0,0,1,.07,5.22,45.27,45.27,0,0,1-.5,5,41.2,41.2,0,0,1-1,4.77,38.74,38.74,0,0,1-1.54,4.48,37.38,37.38,0,0,1-2,4.17,36.07,36.07,0,0,1-2.48,3.81,35.56,35.56,0,0,1-2.92,3.42,33.1,33.1,0,0,1-7,5.51,33.23,33.23,0,0,1-4.05,2c0,.23,0,.34.06.57a37.06,37.06,0,0,1,4.13.14,28.61,28.61,0,0,1,3.83.62,22.48,22.48,0,0,1,3.51,1.13,21.29,21.29,0,0,1,3.21,1.68,20,20,0,0,1,2.88,2.27,21.91,21.91,0,0,1,2.56,2.9,27.14,27.14,0,0,1,2.21,3.55,33,33,0,0,1,1.85,4.27,44.27,44.27,0,0,1,1.45,5,51.52,51.52,0,0,1,1,5.79c.23,2,.38,4.15.43,6.4s0,4.64-.15,7.14c-.09,1.41-.17,2.58-.26,3.67s-.18,2.11-.28,3.2-.23,2.25-.39,3.64q-.36,3.14-.69,6c-.21,1.89-.41,3.68-.59,5.38s-.34,3.31-.48,4.83-.24,3-.32,4.32-.13,2.64-.15,3.85,0,2.33,0,3.39.13,2.06.24,3c-2,.58-3.78,1.07-5.43,1.5s-3.18.81-4.65,1.15-2.91.66-4.36,1-3,.59-4.54.87-3.28.57-5.15.85a22.12,22.12,0,0,1-.43-3c-.09-1.08-.13-2.26-.13-3.55s.06-2.68.15-4.19.23-3.14.4-4.9.37-3.64.6-5.66.48-4.19.75-6.51c.16-1.41.29-2.59.39-3.69s.21-2.13.3-3.25.18-2.3.28-3.74c.18-2.71.24-5.24.2-7.59a63.69,63.69,0,0,0-.4-6.5,41.59,41.59,0,0,0-1-5.5,29.89,29.89,0,0,0-1.52-4.47,17.55,17.55,0,0,0-2-3.39,11.82,11.82,0,0,0-2.39-2.4,10.53,10.53,0,0,0-2.82-1.47,13.16,13.16,0,0,0-3.27-.62,20.18,20.18,0,0,0-3.75.16c-1.55.21-2.84.37-4,.52l-3.51.42-4,.44c.12,2,.22,3.94.31,5.84s.19,3.74.26,5.54.15,3.56.21,5.29,0,3.26,0,4.83,0,3.1-.06,4.6-.07,3-.12,4.42-.12,2.88-.19,4.3-.16,2.83-.26,4.23-.21,2.81-.34,4.21-.26,2.82-.41,4.24-.33,2.86-.52,4.31-.39,2.93-.62,4.42-.48,3-.76,4.59-.58,3.14-.92,4.77-.71,3.3-1.12,5c-1.68-.05-3.18-.12-4.57-.2s-2.69-.16-3.94-.26-2.47-.2-3.71-.31l-3.89-.4c-1.36-.16-2.82-.33-4.44-.55.36-1.84.68-3.67,1-5.49s.55-3.63.78-5.44.44-3.6.62-5.4.33-3.57.47-5.35.24-3.55.33-5.32.17-3.52.22-5.28.1-3.5.12-5.25,0-3.49,0-5.23,0-3.47-.06-5.21-.1-3.49-.2-5.29-.21-3.58-.32-5.34-.21-3.5-.32-5.23-.22-3.43-.33-5.12-.23-3.36-.34-5-.23-3.31-.35-4.94-.24-3.26-.36-4.88-.24-3.22-.36-4.81-.25-3.19-.38-4.77-.25-3.15-.38-4.72l-.39-4.69c-.13-1.56-.27-3.12-.4-4.67l-.42-4.66-.42-4.64c-.14-1.55-.29-3.1-.44-4.65l-.45-4.64c-.15-1.55-.31-3.1-.46-4.65l-.48-4.66c-.16-1.55-.33-3.11-.49-4.67s-.34-3.11-.51-4.68-.35-3.12-.52-4.68l-.54-4.7c-.19-1.57-.37-3.13-.56-4.7Zm23.22,18.19c.29,1.75.56,3.43.82,5.05s.5,3.19.72,4.72.45,3,.66,4.47.41,2.89.6,4.32.38,2.84.57,4.27.37,2.86.55,4.33.36,3,.54,4.5.36,3.14.55,4.8.37,3.4.56,5.23.38,3.75.57,5.78c1.89-.27,3.3-.48,4.72-.7l4.72-.74a27.61,27.61,0,0,0,4.7-1.16,20.29,20.29,0,0,0,4-1.88,16.56,16.56,0,0,0,3.2-2.59,16,16,0,0,0,2.43-3.3,19.29,19.29,0,0,0,1.64-4,25.6,25.6,0,0,0,.84-4.68,33.68,33.68,0,0,0,0-5.33,48,48,0,0,0-.78-6,46.73,46.73,0,0,0-1.67-6.47,30.06,30.06,0,0,0-2.25-5.12,19.55,19.55,0,0,0-2.79-3.85,14.3,14.3,0,0,0-3.3-2.63,13.07,13.07,0,0,0-3.81-1.48,16.94,16.94,0,0,0-4.34-.36,25.07,25.07,0,0,0-4.9.73l-4.26,1Z"/><path class="cls-2" d="M669.79,268.94c-2,.06-3.83.14-5.54.24s-3.29.2-4.82.32-3,.25-4.47.39-2.92.29-4.43.46l-4.71.56c-1.64.21-3.38.45-5.26.71-.7-1.8-1.35-3.44-2-5s-1.22-2.93-1.81-4.27-1.16-2.63-1.74-3.89-1.17-2.53-1.79-3.81-1.27-2.6-2-4-1.47-2.84-2.32-4.4c1.63-.15,3.23-.26,4.8-.35s3.11-.16,4.62-.2,3-.06,4.49,0,2.93,0,4.37.07,2.87.11,4.29.19,2.83.19,4.24.31,2.82.26,4.23.42,2.83.34,4.26.54,2.87.41,4.33.65,2.94.5,4.44.79,3,.59,4.6.93,3.17.7,4.82,1.09,3.33.83,5.08,1.29,3.55,1,5.42,1.52,3.8,1.13,5.81,1.78,4.18,1.35,6,2,3.67,1.41,5.52,2.24c1.44,1,2.69,2,3.84,2.93s2.19,1.82,3.19,2.71,1.93,1.78,2.87,2.71,1.89,1.92,2.88,3,2,2.27,3.1,3.63c-1.62-.42-3.16-.77-4.64-1.07s-3-.56-4.52-.85-3-.55-4.48-.79-2.87-.46-4.3-.67-2.87-.4-4.36-.59-3-.37-4.65-.54-3.32-.33-5.14-.48q1.46,2.27,2.77,4.52c.87,1.5,1.71,3,2.5,4.5s1.55,3,2.27,4.46,1.39,3,2,4.43,1.25,2.94,1.82,4.39,1.12,2.92,1.64,4.36,1,2.89,1.45,4.33.88,2.87,1.28,4.31.77,2.85,1.11,4.28.67,2.85,1,4.27.57,2.85.82,4.27.46,2.85.66,4.28.38,2.86.53,4.3.28,2.88.38,4.32.19,2.91.25,4.38.08,2.94.09,4.43,0,3-.06,4.5-.13,3-.24,4.53-.27,3.05-.45,4.6-.39,3.1-.64,4.68-.54,3.16-.86,4.77-.7,3.23-1.11,4.88-.87,3.31-1.37,5-1.06,3.39-1.68,5.12-1.27,3.48-2,5.26-1.53,3.58-2.39,5.4-1.79,3.68-2.8,5.55c-1.48,1-2.85,1.88-4.15,2.7s-2.52,1.57-3.74,2.31-2.43,1.44-3.69,2.17-2.58,1.46-4,2.25-3,1.63-4.82,2.56c.79-1.88,1.51-3.74,2.18-5.58s1.27-3.65,1.83-5.45,1.08-3.56,1.55-5.32.89-3.48,1.27-5.19.73-3.41,1-5.09.59-3.33.83-5,.45-3.27.63-4.88.33-3.21.45-4.8.22-3.16.29-4.72.12-3.11.14-4.66,0-3.09,0-4.64-.09-3.08-.17-4.61-.16-3-.27-4.54-.24-3-.38-4.49-.31-3-.49-4.45-.38-2.95-.59-4.42-.45-2.94-.7-4.4-.51-2.94-.8-4.4-.59-2.93-.91-4.4-.67-2.94-1-4.42-.75-2.95-1.15-4.43-.83-3-1.28-4.46-.91-3-1.4-4.5-1-3-1.56-4.53-1.11-3-1.7-4.58-1.22-3.08-1.87-4.63-1.33-3.1-2-4.67-1.45-3.13-2.23-4.71S670.63,270.53,669.79,268.94Z"/></g></g></svg>