<svg id="logo" xmlns="http://www.w3.org/2000/svg" width="158.372" height="90" viewBox="0 0 158.372 90">
  <path id="パス_26" data-name="パス 26" d="M4.489,59.838c.211.181.422.356.65.526s.452.333.684.49.473.309.718.457.492.288.745.421.513.267.775.394.53.246.8.36.547.227.827.333.564.21.844.305.578.189.874.278.593.17.9.25.608.154.916.225.619.139.933.21.633.122.952.179.633.107.967.156.654.093.984.135.663.08,1,.114.673.065,1.011.095.682.053,1.024.076.69.04,1.036.055.7.029,1.055.04.7.017,1.055.023.707,0,1.055,0h1.072l1.083-.025c.363-.011.726-.023,1.089-.04s.73-.032,1.1-.053.735-.042,1.1-.067.737-.051,1.106-.078.741-.059,1.112-.093.743-.065,1.115-.1.745-.074,1.119-.114.749-.082,1.123-.126l1.125-.135,1.127-.147c.376-.051.751-.1,1.127-.156s.754-.107,1.131-.164l1.129-.173c.378-.061.756-.12,1.131-.183s.756-.124,1.131-.189l1.131-.2,1.131-.21,1.129-.21,1.129-.21,1.127-.225,1.125-.232,1.125-.24,1.121-.242,1.119-.25,1.115-.255q.557-.126,1.112-.259l1.11-.263,1.106-.269,1.1-.271,1.1-.278c.365-.093.722-.181,1.081-.267s.711-.17,1.055-.25.7-.16,1.055-.234.694-.149,1.039-.21l1.024-.21c.34-.065.678-.126,1.013-.187s.667-.118,1-.173.661-.109.988-.16l.977-.147.967-.133c.321-.044.633-.084.956-.122s.633-.076.946-.112l.937-.1.927-.088.92-.082.91-.072.9-.061c.3-.021.6-.038.9-.055l.889-.048.882-.04.878-.034.87-.027c.291-.011.578-.017.868-.023l.859-.019.857-.013.844-.011h8.4l.834-.011.834-.013.844-.019.844-.023.844-.032.844-.036.844-.044.844-.055.855-.063c.285-.021.572-.046.859-.074s.576-.055.865-.084.578-.063.87-.1.583-.072.876-.112.589-.08.884-.124.593-.091.893-.141.6-.1.9-.158.6-.114.908-.175.61-.126.918-.194.616-.139.929-.21.623-.154.939-.236.633-.168.95-.259.633-.185.963-.284.648-.21.975-.309.657-.21.99-.337.667-.238,1-.366.675-.259,1.02-.4.686-.28,1.034-.421.7-.3,1.055-.461.711-.326,1.07-.5.724-.351,1.091-.537.737-.377,1.11-.577.749-.4,1.131-.619.764-.434,1.153-.661.781-.465,1.178-.707.8-.5,1.2-.758.813-.53,1.226-.808q.545-.366,1.085-.743t1.074-.762c.357-.257.73-.528,1.034-.76s.6-.461.884-.7.559-.476.827-.716.524-.484.773-.728.49-.492.724-.741.456-.5.671-.751.422-.505.633-.76.393-.509.58-.766.365-.514.536-.772.338-.518.5-.779.308-.522.454-.783.283-.524.422-.787.258-.526.378-.791.234-.53.342-.8.211-.532.306-.8.186-.535.27-.8.163-.537.236-.806.139-.539.211-.81.118-.543.169-.814.095-.545.133-.819.074-.547.1-.823.049-.551.065-.829.025-.554.03-.842,0-.558,0-.842-.023-.564-.042-.842-.049-.566-.08-.842-.074-.57-.12-.857-.1-.577-.158-.865-.129-.581-.211-.873-.158-.583-.247-.878-.19-.589-.3-.886-.211-.6-.344-.894-.255-.6-.4-.9-.291-.6-.452-.907-.334-.608-.515-.913-.374-.61-.576-.918-.422-.615-.646-.922-.467-.617-.72-.926-.517-.619-.8-.928-.572-.619-.88-.928-.633-.619-.971-.926-.695-.617-1.068-.924q-.369-.305-.758-.6t-.806-.65c-.266-.194-.538-.383-.813-.57s-.557-.37-.844-.551-.572-.358-.866-.532-.591-.347-.895-.516-.608-.335-.918-.5-.633-.324-.946-.48-.633-.311-.969-.463-.659-.3-.994-.442-.675-.286-1.02-.421-.69-.274-1.043-.406-.707-.263-1.066-.389-.724-.25-1.091-.37-.737-.238-1.112-.351-.76-.227-1.134-.324-.768-.21-1.159-.316l-1.18-.316c-.391-.105-.8-.189-1.2-.278s-.813-.177-1.224-.261-.828-.164-1.248-.24-.844-.152-1.267-.223-.857-.141-1.29-.21-.87-.128-1.311-.187-.882-.116-1.33-.168-.9-.1-1.353-.149-.927-.09-1.366-.13-.876-.046-1.307-.088S100.073.089,99.65.066,98.806.026,98.4.013s-.819-.023-1.222-.038-.8,0-1.195,0-.785,0-1.172.015-.768.021-1.146.036-.754.034-1.125.055-.737.048-1.1.076-.724.059-1.081.095S89.651.323,89.3.363s-.7.084-1.041.128-.682.1-1.02.147-.671.105-1,.162-.661.118-.986.179-.648.126-.969.194-.633.137-.952.21-.633.145-.937.221l-.925.236c-.3.082-.608.164-.908.25s-.6.17-.9.261-.591.179-.882.274-.585.187-.872.284-.576.2-.861.3-.568.21-.844.307-.562.21-.844.318-.555.21-.83.328-.549.223-.821.337-.543.229-.813.347-.538.236-.8.356-.534.242-.8.364l-.792.373-.785.381-.783.394-.773.4-.77.4c-.255.137-.511.271-.764.421s-.509.276-.762.421l-.76.421-.756.421-.754.434-.754.438c-.251.147-.5.295-.751.444l-.752.446-.745.438-.752.457-.754.459-.756.463-.766.465-.76.467-.764.471-.768.474-.773.482-.777.478-.783.476c-.264.16-.526.32-.792.478l-.8.463-.8.478-.815.478c-.272.158-.532.309-.781.448s-.5.274-.764.4-.524.261-.794.387-.547.248-.827.368-.564.236-.855.351-.585.225-.882.335-.6.21-.912.32-.623.21-.939.307-.633.2-.965.295-.654.189-.99.282-.671.183-1.013.271-.686.177-1.036.265-.7.17-1.055.255l-1.079.25-1.1.244-1.115.248-1.134.238-1.148.238-1.163.24-1.18.242-1.186.246-1.195.253-1.2.259L25.214,25q-.6.137-1.212.282t-1.214.295c-.405.1-.811.21-1.216.314s-.808.21-1.212.333-.8.232-1.205.351-.8.248-1.2.377-.8.265-1.191.4-.787.282-1.178.431-.777.305-1.161.465-.764.326-1.142.5-.758.356-1.121.539-.716.368-1.055.558-.676.383-1,.581-.633.4-.941.6-.6.41-.887.631-.562.421-.83.646-.53.442-.781.667-.494.457-.728.692-.462.471-.682.713-.422.49-.633.741-.4.5-.587.764-.369.522-.545.789-.34.541-.5.817-.312.56-.458.842-.285.579-.422.878-.255.6-.376.907-.23.631-.334.943-.188.589-.3.993S.9,42.852.8,43.243.622,44.022.546,44.4.4,45.156.335,45.525s-.11.726-.15,1.086-.078.711-.106,1.052S.033,48.357.022,48.7s0,.676,0,1.006.021.659.044.981.053.644.095.964.091.631.152.932.127.608.211.907.167.593.264.884.211.577.325.859.247.562.386.842.291.545.454.81.336.526.521.783.384.509.6.756.433.49.671.728S4.223,59.61,4.489,59.838Z" transform="translate(-0.018 0.031)" fill="#d12b2b"/>
  <path id="パス_27" data-name="パス 27" d="M17.51,143.771q.158-.322.341-.631c.12-.21.248-.421.381-.631s.271-.421.421-.631.309-.446.484-.692.37-.507.589-.8.467-.612.753-.979a9.16,9.16,0,0,0,.535.886,10.158,10.158,0,0,0,.631.814q.335.391.7.747t.77.676q.387.314.808.6c.284.189.577.366.873.528s.6.316.909.455.631.261.939.37a8.742,8.742,0,0,0,.96.286c.328.076.646.149.972.2s.652.086.979.105a8.464,8.464,0,0,0,1.158,0,7,7,0,0,0,1.052-.152,5.877,5.877,0,0,0,.926-.295,4.952,4.952,0,0,0,.806-.421,4.437,4.437,0,0,0,1.25-1.212,4.956,4.956,0,0,0,.44-.772,5.917,5.917,0,0,0,.311-.884,6.949,6.949,0,0,0,.187-.974,6.285,6.285,0,0,0,.046-1.052,4.731,4.731,0,0,0-.13-.962,3.882,3.882,0,0,0-.324-.869,3.7,3.7,0,0,0-.537-.751,4.33,4.33,0,0,0-.76-.659,5.894,5.894,0,0,0-1.008-.551,8.844,8.844,0,0,0-1.244-.431c-.354-.1-.671-.187-.966-.271l-.842-.244-.785-.236-.821-.253-.918-.3c-.406-.128-.791-.271-1.16-.421a10.921,10.921,0,0,1-1.052-.511,9.731,9.731,0,0,1-.93-.591,8.526,8.526,0,0,1-.814-.671,7.291,7.291,0,0,1-.69-.751,6.769,6.769,0,0,1-.581-.825,7.1,7.1,0,0,1-.459-.9c-.13-.314-.259-.581-.364-.861a6.478,6.478,0,0,1-.257-.842,6.343,6.343,0,0,1-.133-.867,6.132,6.132,0,0,1,0-.88,6.3,6.3,0,0,1,.124-.894,6.673,6.673,0,0,1,.259-.9,7.727,7.727,0,0,1,.4-.909,9.742,9.742,0,0,1,.541-.918c.156-.232.32-.459.495-.682s.36-.44.556-.652.4-.421.608-.631.434-.406.661-.6.467-.394.711-.585.495-.379.753-.564.524-.368.8-.547.551-.358.842-.532.572-.347.867-.518.6-.339.9-.5.615-.33.926-.49.631-.322.951-.478.644-.314.97-.465.657-.3.989-.452.665-.295,1-.438.673-.284,1.012-.421.68-.276,1.021-.408.684-.265,1.027-.391.684-.253,1.027-.375.684-.24,1.027-.356.682-.227,1.023-.337.678-.21,1.017-.314l1.008-.29q.5-.139,1-.265t.985-.24c.326-.076.648-.145.968-.21.528-.107,1.04-.21,1.528-.278s.955-.139,1.4-.185.869-.074,1.263-.086.777,0,1.13.015a7.914,7.914,0,0,1,.983.118,4.948,4.948,0,0,1,.829.227,3.277,3.277,0,0,1,.676.343,2.315,2.315,0,0,1,.509.467,2.141,2.141,0,0,1,.341.6,2.7,2.7,0,0,1,.162.734c-.316.253-.617.495-.909.726l-.842.665-.8.619-.768.589-.747.575-.753.577-.779.591-.823.631-.886.673-.972.737a3.331,3.331,0,0,0-.2-.852,2.654,2.654,0,0,0-.932-1.227,3.54,3.54,0,0,0-.709-.394,4.938,4.938,0,0,0-.842-.259,7.177,7.177,0,0,0-.972-.133,10.2,10.2,0,0,0-1.082-.013c-.375.015-.766.048-1.17.1s-.747.109-1.113.183-.728.162-1.084.261-.7.21-1.052.328-.676.25-1,.391-.631.293-.947.452-.6.328-.884.507-.554.364-.81.56a9.477,9.477,0,0,0-.728.612,7.833,7.833,0,0,0-.631.667,6.852,6.852,0,0,0-.532.716,4.683,4.683,0,0,0-.509,1.035,2.444,2.444,0,0,0-.13.9,1.734,1.734,0,0,0,.234.76,2.153,2.153,0,0,0,.587.631,3.915,3.915,0,0,0,.928.495,7.512,7.512,0,0,0,1.263.356l.937.194.819.168.781.158.825.166.953.187q.575.114,1.1.259t1.014.326c.322.118.631.25.924.391a8.784,8.784,0,0,1,.842.465,7.475,7.475,0,0,1,.745.539,3.847,3.847,0,0,1,.655.617,8.454,8.454,0,0,1,.543.789,8.862,8.862,0,0,1,.457.842,9.132,9.132,0,0,1,.375.911q.164.469.295.97c.084.333.156.673.21,1.025s.1.707.137,1.075.053.741.059,1.122,0,.772-.015,1.166-.048.8-.091,1.206-.1.821-.164,1.238-.139.814-.223,1.208-.179.779-.282,1.155-.21.745-.339,1.1-.255.709-.4,1.052-.29.671-.448.993-.328.631-.5.934-.362.593-.556.876-.4.551-.6.812-.421.514-.655.753-.457.469-.7.688-.486.421-.741.631a8.558,8.558,0,0,1-.791.562c-.274.179-.549.347-.842.5s-.572.3-.865.421-.593.253-.9.36a9.5,9.5,0,0,1-.93.286c-.316.076-.631.154-.958.21s-.655.1-.989.135-.673.051-1.019.055-.692,0-1.052-.027-.711-.059-1.073-.109q-.474-.065-.947-.164c-.316-.065-.631-.139-.947-.223s-.631-.177-.943-.28-.631-.21-.934-.337-.621-.25-.926-.387-.612-.284-.913-.438-.6-.314-.9-.482-.589-.343-.88-.522-.575-.368-.854-.562-.56-.391-.831-.593-.541-.421-.8-.631-.52-.421-.77-.65-.495-.446-.73-.676-.465-.463-.684-.7S17.71,144.016,17.51,143.771Z" transform="translate(-13.829 -86.846)" fill="#fff"/>
  <path id="パス_28" data-name="パス 28" d="M211.235,50.8l-1.107.488-1.019.442-.947.421-.9.387-.884.373c-.293.122-.587.246-.886.368s-.572.232-.865.341-.593.21-.911.333-.65.21-1,.335-.724.227-1.12.343c.189-.387.366-.743.535-1.075s.326-.631.48-.932.3-.572.446-.842.288-.539.434-.8l.448-.808c.154-.274.314-.556.482-.842s.347-.6.541-.93q.568-.229,1.1-.467t1.014-.48c.326-.164.631-.328.941-.5s.654-.37.977-.554.631-.366.947-.547l.918-.532.888-.524.865-.514.842-.505.831-.5.821-.492.814-.49.812-.486.812-.486.817-.488.831-.5.842-.495.857-.5.88-.505.9-.514.932-.522c.316-.177.631-.354.968-.53s.663-.358,1.006-.539.69-.364,1.052-.549.724-.368,1.1-.556c.059.364.112.709.158,1.04s.088.646.126.951.074.6.105.9.059.583.086.875.053.585.078.886.046.612.067.937.042.665.061,1.027.038.745.055,1.16q-.581.215-1.107.421c-.351.137-.688.267-1.012.4s-.631.253-.943.377l-.894.366-.871.366-.871.37-.9.389-.943.421-1.01.446-1.1.49c-.044.375-.09.749-.137,1.122l-.139,1.113c-.048.37-.095.739-.143,1.1s-.095.734-.143,1.1-.095.73-.143,1.092-.095.726-.141,1.086-.095.72-.141,1.08-.095.718-.141,1.075-.091.713-.137,1.071-.091.711-.135,1.067l-.133,1.065c-.044.356-.086.709-.128,1.065s-.086.709-.126,1.065-.082.709-.122,1.065-.095.76-.141,1.143-.093.762-.139,1.136-.086.747-.13,1.115-.082.732-.122,1.094-.08.722-.118,1.08-.076.709-.111,1.052-.069.7-.105,1.052-.067.692-.1,1.035-.063.684-.095,1.023l-.088,1.014c-.029.337-.057.671-.084,1.006s-.053.667-.078,1-.051.661-.074.991l-.069.987-.063.983c-.021.328-.04.655-.059.979s-.036.652-.053.977-.034.648-.048.972-.029.646-.044.97l-.038.966c-.011.322-.021.644-.029.964s-.019.631-.027.96-.021.642-.04.972-.034.661-.046.989-.019.657-.021.985l-1.109.263-1.014.236-.947.21-.9.21-.876.194-.875.187-.9.189c-.305.065-.619.131-.945.2l-1.01.21-1.1.21v-.966c0-.324.015-.646.027-.972s.021-.631.027-.955.013-.631.021-.951.021-.631.034-.953.025-.631.042-.958.034-.642.053-.964.04-.642.061-.966.046-.646.072-.97.051-.65.08-.977.057-.652.088-.979.063-.657.1-.987.069-.661.105-.993.076-.667.116-1,.08-.671.122-1.01.086-.678.133-1.021.09-.686.139-1.031.1-.694.151-1.052.1-.705.158-1.052.112-.716.17-1.078.118-.726.179-1.094.126-.741.191-1.118.133-.756.21-1.139.141-.772.21-1.166.135-.732.21-1.088l.21-1.063c.069-.354.139-.707.21-1.052s.143-.705.21-1.052.149-.705.225-1.052.156-.707.236-1.052.162-.707.244-1.052.166-.709.253-1.063.17-.711.259-1.069.177-.713.267-1.071.183-.716.276-1.075.187-.72.282-1.08.191-.724.288-1.086Z" transform="translate(-159.031 -28.117)" fill="#fff"/>
  <path id="パス_29" data-name="パス 29" d="M345.58,8.375q.528-.223,1.035-.421t1.008-.4c.33-.128.657-.25.979-.37s.631-.234.953-.343.631-.21.934-.32.615-.2.918-.3.6-.187.9-.276.6-.175.895-.259.594-.162.89-.24.593-.154.89-.227.593-.143.892-.21.6-.135.9-.2l.916-.185c.307-.059.619-.116.934-.173l.958-.164c.324-.051.652-.1.989-.147s.676-.09,1.023-.135.7-.082,1.065-.12.735-.072,1.115-.1.768-.061,1.168-.088.812-.048,1.233-.067.857-.034,1.3-.044.909-.015,1.385-.017q.232.522.421,1c.133.322.255.631.368.928s.223.589.324.875.2.562.292.842.183.551.269.825.173.551.255.842.166.566.248.861.162.6.244.915.162.644.244.991.164.707.246,1.09h-1.263c-.408,0-.8,0-1.176.015s-.747.017-1.107.029-.705.025-1.052.04l-1,.053c-.326.019-.644.038-.958.061s-.631.044-.93.069-.606.051-.907.08-.6.057-.9.088-.593.063-.892.1-.6.072-.9.109l-.909.122-.93.137c-.316.048-.631.1-.96.154s-.657.112-.993.173-.684.126-1.038.194-.713.141-1.086.21q.095.583.173,1.126c.055.364.1.716.147,1.052s.084.676.122,1,.074.644.107.96.063.631.093.934.057.617.082.926.05.619.074.932.044.631.065.958.04.659.059,1,.036.7.053,1.063.032.745.044,1.141.027.808.038,1.242c.4-.057.787-.107,1.164-.156l1.1-.133c.356-.042.7-.08,1.052-.116l1-.1.964-.09.943-.078.928-.069.928-.061.939-.055.96-.046c.326-.015.657-.029.993-.04s.684-.025,1.04-.034.72-.019,1.1-.025.766-.013,1.168-.017.819,0,1.252,0c0,.379.013.741.017,1.09s0,.684,0,1.008v.945c0,.314,0,.608-.013.9s-.013.587-.021.878-.023.6-.038.9-.027.6-.044.909-.034.617-.053.932-.04.631-.061.977-.048.678-.076,1.035-.057.728-.09,1.115l-1.208.011-1.128.017-1.065.021-1.012.027-.97.034-.939.036-.92.042-.913.046-.918.055-.93.059-.958.069c-.324.023-.654.048-.991.078L358,36.959l-1.1.105q-.564.057-1.168.122c-.019.448-.036.878-.055,1.29s-.036.806-.055,1.187-.038.749-.057,1.1-.038.7-.057,1.038-.04.665-.059.989-.04.631-.061.953-.04.631-.063.934-.042.631-.065.932-.046.631-.072.941-.051.631-.078.964-.055.659-.084,1-.061.688-.095,1.052-.067.724-.105,1.1q.631-.044,1.233-.08l1.153-.067,1.088-.055,1.033-.044.991-.04.962-.032.943-.029.935-.023.941-.021.953-.021.983-.017,1.021-.015,1.069-.017,1.132-.015,1.2-.015c-.1.4-.191.779-.284,1.136s-.181.692-.269,1.012-.175.631-.261.926-.171.585-.255.867-.172.56-.259.842-.179.556-.272.842-.232.6-.352.911l-.366.964q-.19.5-.391,1.038l-1.149.021-1.1.013H357.7l-.934.013-.943.017-.96.021-.983.029-1.01.036-1.052.046-1.09.057c-.373.021-.754.044-1.143.072s-.789.055-1.2.086-.842.067-1.263.107-.882.084-1.345.133c.03-.343.061-.686.1-1.031s.074-.69.116-1.035.08-.69.105-1.023l.069-1,.069-1.008c.021-.339.044-.676.065-1.014l.063-1.017.063-1.023c.019-.341.04-.682.059-1.025s.04-.684.059-1.029.04-.686.057-1.031.038-.688.057-1.035.036-.69.055-1.038.034-.695.053-1.052l.05-1.052.051-1.052.05-1.052c.017-.354.032-.705.048-1.052s.032-.709.048-1.065.03-.713.046-1.073.029-.718.046-1.08l.044-1.088.044-1.1c.017-.368.029-.737.044-1.107s.029-.743.044-1.118.021-.722.027-1.069.013-.7.017-1.052.01-.692.015-1.035,0-.69,0-1.033V25.9l-.013-1.021c0-.339-.013-.68-.021-1.019s-.017-.68-.027-1.021-.023-.68-.036-1.021-.027-.68-.044-1.021-.036-.682-.055-1.023-.042-.684-.065-1.025-.051-.686-.078-1.027-.057-.688-.088-1.031-.067-.688-.105-1.033-.076-.69-.118-1.035-.088-.692-.135-1.04-.1-.695-.154-1.052-.114-.7-.175-1.052-.126-.7-.194-1.052-.143-.7-.21-1.052S345.668,8.728,345.58,8.375Z" transform="translate(-272.621 -2.812)" fill="#fff"/>
  <path id="パス_30" data-name="パス 30" d="M482.295,5.79q.65.072,1.24.145t1.136.147c.364.048.711.1,1.052.149s.663.1.981.154.632.1.928.156.6.107.892.162.583.109.873.168.575.116.863.177l.869.189c.293.065.587.135.888.21s.6.145.915.225.631.162.953.25.659.181,1,.28.707.21,1.052.333.686.246,1.023.379.667.276,1,.421.65.3.968.463.631.328.947.5.631.349.926.532.606.37.9.564.6.389.888.591.581.408.867.617.57.421.842.642.558.438.831.661.545.45.814.68.532.463.793.7.518.476.77.716.5.484.749.73.486.495.724.745.467.505.695.76.448.514.665.774.421.522.631.787.4.532.593.8.373.543.549.817.343.553.5.842.311.564.452.842.274.577.4.867.234.589.335.888.192.6.269.907.145.615.2.928.1.667.124.991.034.644.027.958a8.857,8.857,0,0,1-.065.924,8.339,8.339,0,0,1-.154.894c-.065.293-.145.581-.238.863s-.2.562-.32.842-.253.543-.4.808-.3.524-.469.779-.349.509-.541.758-.393.49-.6.73-.431.461-.663.692-.471.452-.722.669-.509.431-.777.631-.541.41-.823.606-.572.387-.871.57-.6.362-.911.532-.631.337-.951.492-.652.309-.987.45-.676.278-1.021.4-.7.246-1.052.356-.716.21-1.082.3-.734.175-1.111.246-.753.137-1.136.189-.772.093-1.166.124-.791.051-1.2.059l-.842.017h-2.342q-.166.631-.337,1.216t-.341,1.145c-.116.368-.229.728-.345,1.078s-.233.69-.349,1.023-.236.657-.354.974-.236.631-.356.932-.24.6-.362.9-.242.585-.366.869-.25.57-.377.842-.257.558-.387.842-.265.549-.4.825-.276.547-.421.819-.288.547-.438.823-.3.549-.461.827-.322.556-.49.842-.343.564-.524.842-.406.606-.631.92-.434.631-.657.955l-.68.979c-.4.076-.772.143-1.124.21s-.68.114-1,.162l-.924.135-.9.116c-.3.036-.6.072-.92.105s-.644.067-.991.1l-1.113.095.518-1.012q.259-.509.522-1.017c.175-.341.362-.688.507-1.01s.288-.631.421-.964.274-.644.408-.966.261-.646.387-.97.25-.648.37-.974.238-.648.351-.974.227-.65.335-.974.21-.652.318-.979.211-.65.3-.977.194-.652.286-.979.183-.652.271-.979.173-.655.257-.981.164-.652.242-.981.156-.652.229-.981.147-.655.21-.981.139-.657.211-.983.128-.657.191-.985.12-.659.179-.987.114-.659.166-.989.105-.661.156-.991.1-.663.145-1,.091-.665.133-1,.082-.667.122-1,.076-.669.109-1.006.07-.676.1-1.014.063-.684.086-1.012.048-.659.067-.987.04-.659.057-.987.03-.657.042-.987.021-.657.03-.987.013-.657.015-.987,0-.659,0-.989,0-.663-.013-.993-.017-.663-.027-1-.025-.665-.044-1-.036-.669-.059-1-.048-.669-.076-1.006-.059-.673-.095-1.012-.072-.678-.114-1.017-.084-.682-.133-1.023-.1-.684-.154-1.029-.114-.688-.175-1.033-.128-.692-.2-1.052-.145-.7-.223-1.052-.162-.7-.25-1.052-.181-.705-.278-1.052-.2-.709-.307-1.065-.21-.716-.341-1.073-.231-.692-.364-1.046-.265-.722-.408-1.086-.293-.724-.448-1.088S482.463,6.156,482.295,5.79Zm12.541,9.936q.141.591.259,1.151c.08.375.15.739.211,1.094s.124.707.177,1.052.1.678.145,1.008.084.655.118.974.067.631.1.953.053.631.074.937.04.621.055.932.029.631.038.937.017.631.021.949,0,.631,0,.972,0,.663-.017,1-.021.69-.036,1.052-.036.724-.061,1.1-.052.764-.086,1.164-.074.808-.118,1.233l1.08.078.932.065,1.052.076q.646.048,1.235.034a9.915,9.915,0,0,0,1.124-.084,7.733,7.733,0,0,0,1.014-.2,6.559,6.559,0,0,0,.907-.309,5.432,5.432,0,0,0,.8-.421,4.806,4.806,0,0,0,.695-.53,4.857,4.857,0,0,0,.587-.631,5.193,5.193,0,0,0,.476-.753,5.85,5.85,0,0,0,.36-.867,6.758,6.758,0,0,0,.236-.981,8.436,8.436,0,0,0,.109-1.1,10.964,10.964,0,0,0-.029-1.221,11.53,11.53,0,0,0-.15-1.155,10.773,10.773,0,0,0-.25-1.065,9.809,9.809,0,0,0-.343-.981,9.026,9.026,0,0,0-.937-1.728,8.9,8.9,0,0,0-.56-.777,8.769,8.769,0,0,0-1.389-1.3c-.255-.194-.52-.379-.8-.551s-.568-.335-.871-.484-.631-.29-.951-.421A10.805,10.805,0,0,0,499,16.58c-.36-.105-.735-.2-1.126-.278l-1.042-.21-.924-.177Z" transform="translate(-377.567 -4.565)" fill="#fff"/>
  <path id="パス_31" data-name="パス 31" d="M320.282,280.129c.351.143.707.269,1.069.383s.724.21,1.09.3.739.166,1.111.231.749.122,1.126.168.758.082,1.137.112.764.048,1.147.063.766.019,1.149.019.768,0,1.151-.015.768-.025,1.151-.044.766-.044,1.147-.069.76-.057,1.139-.088l1.132-.1q.562-.054,1.122-.114l1.107-.116,1.094-.12,1.075-.116,1.052-.109,1.04-.1c.343-.032.682-.061,1.019-.086s.669-.051,1-.07.652-.038.972-.05.631-.023.949-.03.619,0,.922,0,.6.01.9.023.583.032.869.055.564.053.842.088.545.074.81.122.518.1.81.166l.875.2.865.21.857.21.842.21.842.211.842.211.842.21.831.21.829.211.829.2.827.191.827.185.829.179c.276.059.552.116.829.171s.556.109.842.16.558.1.842.151.562.095.842.139.564.086.842.126.568.08.855.114.572.069.861.1.579.057.871.082.585.046.88.065.593.034.892.046.6.021.9.027.608,0,.915,0,.617,0,.928-.019.631-.023.945-.042.631-.042.96-.069.648-.059.976-.1.659-.078.993-.126.673-.1,1.016-.158.686-.122,1.035-.191.7-.147,1.052-.229.718-.17,1.084-.265.732-.2,1.107-.307.751-.227,1.134-.352.77-.255,1.162-.4.789-.286,1.193-.444.81-.322,1.225-.5.814-.347,1.212-.526.791-.36,1.178-.545.768-.37,1.143-.56.743-.381,1.107-.577.72-.391,1.069-.591.7-.4,1.033-.61.671-.421,1-.631.646-.421.957-.631.621-.436.92-.659.593-.444.882-.671.566-.457.842-.688.541-.467.8-.7.513-.476.758-.718.484-.486.716-.732c.364-.387.7-.768,1.008-1.145s.6-.745.861-1.111.5-.726.726-1.08.421-.7.608-1.052.354-.682.505-1.017.288-.663.41-.987.229-.644.324-.958.179-.631.248-.932.13-.608.179-.907.086-.593.113-.884.046-.581.055-.865,0-.566,0-.842-.027-.556-.055-.829-.063-.545-.107-.812-.1-.537-.16-.8-.131-.528-.21-.787-.166-.52-.261-.777-.21-.513-.314-.766-.236-.505-.368-.756-.271-.5-.421-.745-.312-.492-.484-.735-.351-.484-.545-.722-.4-.476-.61-.707-.444-.463-.682-.69-.492-.45-.758-.669-.545-.431-.842-.631-.6-.421-.924-.61q-.541-.328-1.107-.615c-.379-.192-.764-.366-1.157-.528s-.768-.3-1.237-.453-.93-.3-1.381-.442-.886-.305-1.322-.431-.857-.227-1.263-.328-.823-.194-1.221-.28-.791-.162-1.176-.232-.762-.133-1.132-.187-.734-.105-1.092-.147-.711-.078-1.052-.109-.686-.055-1.023-.074-.665-.032-.989-.04-.646-.013-.962,0-.631,0-.934.017-.61.025-.909.042-.594.042-.886.067-.581.057-.867.088-.568.069-.842.109-.556.082-.842.128-.545.093-.814.143-.537.1-.8.158-.528.114-.789.175-.524.12-.783.183l-.77.2c-.257.065-.511.135-.766.21s-.507.141-.76.21-.505.145-.756.221l-.751.227c-.25.078-.5.154-.751.234l-.751.236-.749.24-.753.24-.758.244-.762.242-.77.225c-.257.08-.516.162-.774.24l-.789.244-.791.234-.8.232-.815.225-.827.211c-.278.074-.558.143-.842.21s-.568.139-.857.21-.581.133-.875.2-.591.126-.892.187-.6.12-.911.177-.619.111-.934.166-.631.1-.956.154-.648.095-.979.139-.665.086-1,.126-.684.078-1.033.112-.7.065-1.052.095-.718.053-1.092.076l-1.124.074-1.13.08-1.136.091c-.379.029-.76.063-1.141.1l-1.143.107c-.381.038-.764.076-1.145.118l-1.149.126c-.383.044-.766.088-1.149.137l-1.147.147-1.149.16-1.145.173q-.573.088-1.141.185t-1.136.2q-.568.1-1.132.211c-.375.074-.749.147-1.122.225s-.745.16-1.115.242-.737.168-1.1.257-.73.181-1.09.274-.722.192-1.078.293-.709.21-1.052.309-.7.21-1.04.328-.686.229-1.021.349-.669.244-1,.37-.652.259-.972.394-.631.274-.943.421-.612.288-.911.44-.589.305-.876.465-.566.324-.842.495-.539.341-.8.52-.507.362-.749.551-.478.383-.7.581q-.421.381-.8.768a8.4,8.4,0,0,0-.667.774q-.3.391-.549.783a8.427,8.427,0,0,0-.442.787,8.067,8.067,0,0,0-.341.8,7.647,7.647,0,0,0-.246.8c-.067.269-.12.541-.16.814a8.263,8.263,0,0,0-.072.825,8.019,8.019,0,0,0,0,.842,8.443,8.443,0,0,0,.088.859c.044.288.1.583.171.88s.154.6.253.909.21.619.339.939.272.644.421.974.335.673.528,1.021.4.7.631,1.069.442.68.661.977.45.583.692.857.495.537.76.787a10.967,10.967,0,0,0,.842.72q.436.341.913.648a11.025,11.025,0,0,0,1,.577C319.525,279.809,319.9,279.976,320.282,280.129Z" transform="translate(-245.814 -194.451)" fill="#d12b2b"/>
  <path id="パス_32" data-name="パス 32" d="M321.893,290.51c.257-.187.488-.347.711-.492s.431-.278.648-.408.436-.257.68-.391.514-.28.829-.44a3.142,3.142,0,0,0-.021.631,4.348,4.348,0,0,0,.091.646,6.045,6.045,0,0,0,.181.659c.074.223.16.446.257.671s.21.455.326.686.25.469.391.709.293.486.455.739.339.512.528.779.391.545.61.842.452.587.707.9.526.644.821.989.612.711.955,1.1.718.791,1.122,1.225q.107-.6.238-1.153t.274-1.073q.145-.52.3-1.006c.1-.326.21-.642.324-.949s.227-.606.345-.9.238-.579.362-.859.25-.556.379-.825.263-.539.4-.8.276-.526.421-.787.29-.518.442-.774.305-.516.465-.772.326-.516.5-.774.347-.52.532-.783.375-.526.572-.8.4-.537.619-.81.44-.551.671-.831.478-.566.732-.852c.341-.061.652-.114.943-.162l.825-.133.791-.12.842-.122.972-.132q-.093.461-.158.922c-.046.309-.084.617-.118.926s-.057.619-.078.928-.034.619-.044.928-.01.619,0,.93,0,.621.021.93.029.631.051.932.048.631.08.937.067.631.107.941.084.631.133.947.1.631.162.955.122.644.189.968.139.65.21.981.16.663.246,1,.179.676.276,1.021.2.69.307,1.052.223.709.343,1.073.248.73.381,1.1.273.756.421,1.145.265.722.394,1.069.263.69.4,1.029.271.676.41,1.006.282.661.421.987.29.648.438.966.3.631.45.945.307.621.461.926.314.606.472.905c-.4.015-.756.034-1.088.055s-.642.042-.953.065-.631.05-.966.082-.711.065-1.137.107q-.28-.387-.545-.781c-.177-.263-.349-.524-.518-.787s-.33-.528-.49-.794-.316-.532-.467-.8-.3-.539-.446-.81-.288-.545-.421-.823-.276-.556-.41-.842-.267-.572-.4-.865-.238-.556-.387-.892-.293-.673-.433-1.008-.271-.665-.4-1-.255-.665-.377-1-.238-.667-.349-1-.21-.676-.326-1.016-.21-.686-.3-1.035-.187-.7-.271-1.052-.168-.718-.242-1.086-.145-.739-.21-1.116c-.145.379-.278.745-.4,1.1s-.234.707-.335,1.052-.194.676-.278,1.006-.16.652-.23.972-.133.631-.189.951-.107.631-.151.943-.082.631-.116.947-.061.642-.082.97-.038.661-.046,1-.01.695,0,1.052-.031.659-.044.987-.019.661-.025,1,0,.667,0,1.006l-.922.128-.8.112-.913.12c-.33-.242-.65-.48-.96-.718s-.606-.471-.894-.707-.564-.467-.842-.7-.545-.488-.819-.745-.533-.507-.785-.751-.5-.48-.735-.713-.467-.461-.69-.686-.444-.446-.657-.667-.421-.44-.631-.657-.408-.434-.61-.652-.4-.433-.591-.652-.389-.44-.579-.661-.379-.446-.566-.671-.368-.455-.549-.686-.358-.465-.53-.7c.038.358.088.713.149,1.063s.135.692.21,1.033.173.678.274,1.012.21.663.326.991.242.654.375.979.274.648.421.97.305.646.469.97.337.65.518.976.356.631.522.916.337.549.511.814.354.522.539.775.377.5.575.741.4.478.612.711.421.461.659.686.463.444.709.659.5.421.77.631.545.41.842.61c-.421-.032-.77-.067-1.1-.107s-.631-.082-.928-.13-.593-.1-.909-.171-.655-.149-1.033-.255q-.533-.263-1.027-.56t-.949-.631q-.455-.328-.873-.688c-.28-.24-.547-.488-.8-.749s-.5-.528-.739-.806-.461-.568-.676-.867-.389-.56-.631-.932-.448-.739-.648-1.094-.381-.7-.547-1.052-.32-.676-.459-1-.265-.648-.377-.966-.21-.631-.3-.934-.162-.608-.225-.907-.112-.6-.152-.886-.065-.583-.08-.869-.019-.57-.01-.852.029-.562.063-.842.078-.556.137-.831.131-.551.211-.825a7.819,7.819,0,0,1,.3-.819c.114-.272.244-.543.389-.814s.305-.539.484-.808.372-.539.587-.806S321.64,290.776,321.893,290.51Z" transform="translate(-251.654 -224.625)" fill="#fff"/>
  <path id="パス_33" data-name="パス 33" d="M473.927,276.1c.421-.04.81-.08,1.162-.12s.676-.08.987-.12l.913-.128c.305-.044.614-.093.945-.147s.678-.114,1.052-.185c.084.278.171.558.257.842s.175.564.263.842.179.57.269.857.183.575.276.865.185.579.278.871.187.583.282.876l.284.882c.095.295.189.589.286.886s.191.594.288.892.191.6.288.9.2.6.292.9.2.608.293.916.2.615.295.924l.3.937c.1.314.2.631.3.947s.2.631.3.964.211.65.3.981.21.663.307,1l.311,1.021.314,1.052q.158.53.316,1.073t.322,1.1c.107.372.21.753.311,1.113s.185.722.276,1.082.177.724.263,1.088.166.728.246,1.094.156.735.227,1.1.143.743.211,1.118.126.751.183,1.13.109.762.156,1.147.086.772.12,1.162.063.785.082,1.183l-.968-.173-.842-.162-.793-.164c-.265-.055-.539-.114-.842-.179l-.957-.211c-.044-.383-.095-.737-.145-1.071s-.1-.652-.158-.96-.114-.606-.172-.907-.126-.606-.2-.924-.145-.648-.231-1.006-.181-.743-.29-1.166l-1.033-.114-.936-.107-.871-.1-.842-.1-.842-.1-.888-.112-.966-.122-1.084-.137c-.019.434-.038.813-.055,1.16s-.032.657-.046.955-.029.581-.044.865-.029.57-.046.869-.034.61-.055.943c-.431-.1-.77-.168-1.086-.225s-.615-.1-.918-.132-.61-.065-.949-.088-.707-.044-1.139-.053c-.032-.307-.061-.617-.088-.93s-.053-.631-.076-.951-.046-.646-.067-.974-.038-.659-.055-.993-.032-.674-.044-1.014-.023-.686-.034-1.036-.017-.7-.021-1.052,0-.7-.023-1.092-.04-.779-.048-1.158-.015-.756-.013-1.124,0-.732.021-1.092.03-.715.053-1.065.05-.7.082-1.052.069-.686.112-1.025.086-.676.137-1.01.109-.667.173-1,.131-.661.211-.989.149-.657.229-.985.164-.657.255-.983.181-.657.28-.985.211-.657.309-.985.221-.659.337-.989.238-.661.362-.993.257-.665.391-1,.274-.671.421-1.008.294-.676.45-1.017S473.762,276.442,473.927,276.1Zm.564,18.223c.406.029.774.055,1.12.076l.974.063.9.055.892.051.949.048,1.067.046q-.21-.652-.408-1.25c-.133-.4-.257-.781-.377-1.147s-.238-.718-.349-1.052l-.326-.987c-.105-.32-.21-.631-.307-.936s-.2-.6-.295-.9l-.288-.869c-.095-.29-.187-.577-.282-.865s-.187-.577-.282-.869l-.286-.882c-.095-.3-.192-.6-.29-.907s-.2-.621-.3-.941l-.309-.981q-.139.562-.263,1.09T475.8,284.2c-.074.332-.141.659-.211.981s-.124.631-.183.943-.112.619-.164.924-.1.612-.147.92-.093.615-.137.928-.084.631-.122.958-.076.659-.112,1-.067.7-.1,1.069-.057.751-.082,1.153S474.505,293.884,474.491,294.324Z" transform="translate(-370.489 -217.883)" fill="#fff"/>
  <path id="パス_34" data-name="パス 34" d="M557.67,256.108l1.065-.337.926-.3.855-.274.842-.269.9-.286,1.021-.316c.339-.1.669-.185.993-.25a8.093,8.093,0,0,1,.956-.128,6.712,6.712,0,0,1,.922,0,6.3,6.3,0,0,1,.895.107,6.605,6.605,0,0,1,.869.225,6.89,6.89,0,0,1,.842.341,7.454,7.454,0,0,1,.814.457,8.231,8.231,0,0,1,.8.551,9.079,9.079,0,0,1,.747.688,10.164,10.164,0,0,1,.7.8,10.62,10.62,0,0,1,.646.926,11.747,11.747,0,0,1,.583,1.052q.274.556.507,1.176c.154.421.295.842.421,1.311.105.394.191.783.255,1.166a10.813,10.813,0,0,1,.133,1.136,10.116,10.116,0,0,1,.015,1.1,9.515,9.515,0,0,1-.105,1.052,8.673,8.673,0,0,1-.21,1,8.2,8.2,0,0,1-.324.943,7.376,7.376,0,0,1-1.557,2.4,6.8,6.8,0,0,1-2.326,1.581.387.387,0,0,0,.013.12,7.783,7.783,0,0,1,.869.03,6.007,6.007,0,0,1,.806.13,4.74,4.74,0,0,1,.741.238,4.457,4.457,0,0,1,.674.354,4.215,4.215,0,0,1,.606.478,4.6,4.6,0,0,1,.539.61,5.481,5.481,0,0,1,.465.747,6.938,6.938,0,0,1,.389.9,9.305,9.305,0,0,1,.305,1.052,10.8,10.8,0,0,1,.21,1.219c.049.421.08.871.091,1.347s0,.976-.032,1.5c-.019.3-.036.543-.055.772s-.038.444-.059.673-.048.474-.082.766q-.076.661-.145,1.263c-.044.4-.086.774-.124,1.132s-.072.7-.1,1.016-.05.631-.067.909-.027.556-.032.81,0,.49,0,.713a5.333,5.333,0,0,0,.051.631c-.421.122-.8.225-1.143.316s-.669.171-.979.242-.612.139-.918.211-.631.124-.955.183-.69.12-1.084.179a4.62,4.62,0,0,1-.091-.632c-.019-.227-.027-.476-.027-.747s.013-.564.032-.882.048-.661.084-1.031.078-.766.126-1.191.1-.882.158-1.37c.034-.3.061-.545.082-.777s.044-.448.063-.684.038-.484.059-.787c.038-.57.05-1.1.042-1.6a13.5,13.5,0,0,0-.084-1.368,8.768,8.768,0,0,0-.21-1.158,6.312,6.312,0,0,0-.32-.941,3.682,3.682,0,0,0-.421-.713,2.484,2.484,0,0,0-.5-.505,2.156,2.156,0,0,0-.594-.309,2.764,2.764,0,0,0-.688-.13,4.2,4.2,0,0,0-.787.034l-.852.109-.739.088-.842.093c.025.421.046.829.067,1.229s.038.787.053,1.166.031.749.044,1.113,0,.686,0,1.016,0,.652-.013.968-.015.631-.025.93-.025.606-.04.9-.033.6-.055.89-.044.591-.072.886-.055.593-.086.892-.07.6-.107.907-.084.617-.133.93-.1.631-.16.966-.122.661-.194,1-.15.695-.236,1.052c-.354-.011-.669-.025-.962-.042s-.566-.034-.829-.055-.52-.042-.781-.065l-.819-.084c-.286-.034-.593-.07-.934-.116.076-.387.143-.772.21-1.155s.116-.764.164-1.145.092-.758.13-1.136.07-.751.1-1.126.05-.747.072-1.12.034-.741.046-1.111.019-.737.023-1.1,0-.734,0-1.1,0-.73-.013-1.1-.021-.735-.042-1.113-.044-.753-.067-1.124-.044-.737-.067-1.1-.046-.722-.069-1.078-.048-.707-.072-1.052-.048-.7-.074-1.04-.05-.686-.076-1.027-.051-.678-.076-1.012-.053-.671-.078-1l-.082-.993-.082-.987c-.028-.328-.057-.657-.084-.983l-.088-.981-.088-.977c-.029-.326-.061-.652-.093-.979l-.095-.976c-.031-.326-.065-.652-.1-.979l-.1-.981c-.034-.326-.07-.654-.1-.983s-.071-.655-.107-.985-.074-.657-.109-.985l-.114-.989c-.04-.33-.078-.659-.118-.989Zm4.887,3.828c.061.368.117.722.172,1.063s.105.671.151.993.095.631.139.941.086.608.126.909.082.6.12.9.078.6.116.911.076.631.114.947.076.661.116,1.01.078.715.118,1.1.08.789.12,1.216c.4-.057.694-.1.993-.147l.993-.156a5.814,5.814,0,0,0,.989-.244,4.267,4.267,0,0,0,.842-.4,3.479,3.479,0,0,0,.674-.545,3.369,3.369,0,0,0,.512-.695,4.057,4.057,0,0,0,.345-.842,5.4,5.4,0,0,0,.177-.985,7.1,7.1,0,0,0,0-1.122,10.1,10.1,0,0,0-.164-1.263,9.814,9.814,0,0,0-.351-1.362,6.316,6.316,0,0,0-.473-1.078,4.123,4.123,0,0,0-.587-.81,3.005,3.005,0,0,0-.694-.553,2.75,2.75,0,0,0-.8-.311,3.56,3.56,0,0,0-.914-.076,5.272,5.272,0,0,0-1.031.154l-.9.211Z" transform="translate(-439.886 -200.935)" fill="#fff"/>
  <path id="パス_35" data-name="パス 35" d="M637.506,250.561c-.421.013-.806.029-1.166.05s-.692.042-1.014.067-.631.053-.941.082-.615.061-.932.1l-.991.118c-.345.044-.711.095-1.107.149-.147-.379-.284-.724-.421-1.052s-.257-.617-.381-.9-.242-.554-.366-.819-.246-.532-.377-.8-.267-.547-.421-.842-.31-.6-.488-.926c.343-.032.68-.055,1.01-.074s.655-.034.972-.042.631-.013.945,0,.617,0,.92.015.6.023.9.04.6.04.893.065.593.055.89.088.6.072.9.114.6.086.911.137.619.105.934.166.631.124.968.2.667.147,1.015.229.7.175,1.069.271.747.21,1.141.32.8.238,1.223.375.88.284,1.263.421.773.3,1.162.471c.3.21.566.421.808.617s.461.383.671.57.406.375.6.57.4.4.606.631.421.478.652.764c-.341-.088-.665-.162-.977-.225s-.631-.118-.951-.179-.631-.116-.941-.166-.606-.1-.907-.141-.6-.084-.918-.124-.631-.078-.979-.114-.7-.069-1.082-.1q.307.478.583.951c.183.316.36.631.526.947s.326.631.478.939.293.631.421.932.263.619.385.924.236.615.343.918.211.608.305.911.185.6.269.907.162.6.234.9.141.6.211.9.12.6.173.9.1.6.139.9.08.6.111.9.059.606.082.909.038.612.05.922.019.619.019.932,0,.631-.013.947-.027.631-.051.953-.057.642-.095.968-.082.652-.135.985-.114.665-.181,1-.147.68-.234,1.027-.183.7-.288,1.052-.223.714-.354,1.078-.267.732-.421,1.107-.322.754-.5,1.137-.377.774-.589,1.168c-.311.21-.6.4-.873.568s-.53.33-.787.486-.511.3-.777.457-.543.307-.842.473-.631.343-1.012.539q.246-.593.457-1.174c.139-.387.267-.768.385-1.147s.228-.749.326-1.12.187-.732.267-1.092.153-.718.21-1.071.124-.7.175-1.052.095-.688.133-1.027.069-.676.095-1.01.046-.665.061-.993.025-.655.03-.981,0-.65,0-.976-.019-.648-.036-.97-.034-.631-.057-.956-.05-.631-.08-.945-.065-.631-.1-.936-.08-.621-.124-.93-.095-.619-.147-.926-.107-.619-.168-.926-.124-.617-.191-.926-.141-.619-.21-.93-.158-.621-.242-.932-.175-.631-.268-.939-.194-.631-.3-.947-.21-.631-.328-.953-.232-.631-.358-.964-.257-.648-.394-.974-.28-.652-.421-.983-.305-.659-.467-.991S637.682,250.9,637.506,250.561Z" transform="translate(-496.125 -194.403)" fill="#fff"/>
</svg>
