<?xml version="1.0" encoding="utf-8"?>
<!-- Generator: Adobe Illustrator 24.2.3, SVG Export Plug-In . SVG Version: 6.00 Build 0)  -->
<svg version="1.1" id="レイヤー_1" xmlns="http://www.w3.org/2000/svg" xmlns:xlink="http://www.w3.org/1999/xlink" x="0px"
	 y="0px" viewBox="0 0 64 64" style="enable-background:new 0 0 64 64;" xml:space="preserve">
<style type="text/css">
	.st0{fill:#FFFFFF;}
</style>
<g id="Layer_11">
	<path class="st0" d="M55,12h-1.2L53,8.8C52.9,8.3,52.5,8,52,8h-1V5c0-0.6-0.4-1-1-1h-1V1c0-0.6-0.4-1-1-1c-0.2,0-0.3,0-0.4,0.1
		L39.8,4H14c-0.6,0-1,0.4-1,1v3h-1c-0.5,0-0.9,0.3-1,0.8L10.2,12H9c-0.6,0-1,0.4-1,1v6c0,0.6,0.4,1,1,1h3.1l1.2,13.1c0,0,0,0,0,0
		l0.7,8.1l2,21.9c0,0.5,0.5,0.9,1,0.9h30c0.5,0,1-0.4,1-0.9l2-21.9l0.7-8.1c0,0,0,0,0,0L51.9,20H55c0.6,0,1-0.4,1-1v-6
		C56,12.4,55.6,12,55,12z M47,2.6V4h-2.8L47,2.6z M15,6h34v2H15V6z M12.8,10h38.4l0.5,2H12.3L12.8,10z M48,41l-0.6,7H16.6L16,41
		l-0.6-7h12.2l3.7,3.7c0.4,0.4,1,0.4,1.4,0l3.7-3.7h12.2L48,41z M46.1,62H17.9l-1.1-12h30.4L46.1,62z M48.8,32H36
		c-0.3,0-0.5,0.1-0.7,0.3L32,35.6l-3.3-3.3C28.5,32.1,28.3,32,28,32H15.2l-1.1-12h35.8L48.8,32z M54,18H10v-4h44V18z"/>
</g>
</svg>
